<svg xmlns="http://www.w3.org/2000/svg" xmlns:xlink="http://www.w3.org/1999/xlink" contentStyleType="text/css" height="593px" preserveAspectRatio="none" style="width:1218px;height:593px;background:#FFFFFF;" version="1.1" viewBox="0 0 1218 593" width="1218px" zoomAndPan="magnify"><title>Sistema de Recomendación de Coches de Segunda Mano</title><defs/><g><text fill="#000000" font-family="sans-serif" font-size="14" font-weight="bold" lengthAdjust="spacing" textLength="448.4512" x="378.2484" y="22.9951">Sistema de Recomendación de Coches de Segunda Mano</text><!--class Coche--><g id="elem_Coche"><rect codeLine="6" fill="#F1F1F1" height="259.8594" id="Coche" rx="2.5" ry="2.5" style="stroke:#181818;stroke-width:0.5;" width="139.4287" x="446.19" y="326.8869"/><ellipse cx="489.9469" cy="342.8869" fill="#ADD1B2" rx="11" ry="11" style="stroke:#181818;stroke-width:1.0;"/><path d="M492.9157,348.5275 Q492.3376,348.8244 491.6969,348.965 Q491.0563,349.1213 490.3532,349.1213 Q487.8532,349.1213 486.5251,347.4806 Q485.2126,345.8244 485.2126,342.6994 Q485.2126,339.5744 486.5251,337.9181 Q487.8532,336.2619 490.3532,336.2619 Q491.0563,336.2619 491.6969,336.4181 Q492.3532,336.5744 492.9157,336.8713 L492.9157,339.59 Q492.2907,339.0119 491.6969,338.7463 Q491.1032,338.465 490.4782,338.465 Q489.1344,338.465 488.4469,339.5431 Q487.7594,340.6056 487.7594,342.6994 Q487.7594,344.7931 488.4469,345.8713 Q489.1344,346.9338 490.4782,346.9338 Q491.1032,346.9338 491.6969,346.6681 Q492.2907,346.3869 492.9157,345.8088 L492.9157,348.5275 Z " fill="#000000"/><text fill="#000000" font-family="sans-serif" font-size="14" lengthAdjust="spacing" textLength="43.5244" x="510.3374" y="347.7336">Coche</text><line style="stroke:#181818;stroke-width:0.5;" x1="447.19" x2="584.6187" y1="358.8869" y2="358.8869"/><ellipse cx="457.19" cy="372.5353" fill="none" rx="3" ry="3" style="stroke:#038048;stroke-width:1.0;"/><text fill="#000000" font-family="sans-serif" font-size="14" lengthAdjust="spacing" textLength="71.9551" x="466.19" y="375.882">marca: str</text><ellipse cx="457.19" cy="388.8322" fill="none" rx="3" ry="3" style="stroke:#038048;stroke-width:1.0;"/><text fill="#000000" font-family="sans-serif" font-size="14" lengthAdjust="spacing" textLength="79.8643" x="466.19" y="392.1789">modelo: str</text><ellipse cx="457.19" cy="405.1291" fill="none" rx="3" ry="3" style="stroke:#038048;stroke-width:1.0;"/><text fill="#000000" font-family="sans-serif" font-size="14" lengthAdjust="spacing" textLength="107.7549" x="466.19" y="408.4757">descripcion: str</text><ellipse cx="457.19" cy="421.4259" fill="none" rx="3" ry="3" style="stroke:#038048;stroke-width:1.0;"/><text fill="#000000" font-family="sans-serif" font-size="14" lengthAdjust="spacing" textLength="84.0273" x="466.19" y="424.7726">precio: float</text><ellipse cx="457.19" cy="437.7228" fill="none" rx="3" ry="3" style="stroke:#038048;stroke-width:1.0;"/><text fill="#000000" font-family="sans-serif" font-size="14" lengthAdjust="spacing" textLength="113.4287" x="466.19" y="441.0695">combustible: str</text><ellipse cx="457.19" cy="454.0197" fill="none" rx="3" ry="3" style="stroke:#038048;stroke-width:1.0;"/><text fill="#000000" font-family="sans-serif" font-size="14" lengthAdjust="spacing" textLength="57.3262" x="466.19" y="457.3664">anio: int</text><ellipse cx="457.19" cy="470.3166" fill="none" rx="3" ry="3" style="stroke:#038048;stroke-width:1.0;"/><text fill="#000000" font-family="sans-serif" font-size="14" lengthAdjust="spacing" textLength="106.4492" x="466.19" y="473.6632">kilometraje: int</text><ellipse cx="457.19" cy="486.6134" fill="none" rx="3" ry="3" style="stroke:#038048;stroke-width:1.0;"/><text fill="#000000" font-family="sans-serif" font-size="14" lengthAdjust="spacing" textLength="88.0127" x="466.19" y="489.9601">potencia: int</text><ellipse cx="457.19" cy="502.9103" fill="none" rx="3" ry="3" style="stroke:#038048;stroke-width:1.0;"/><text fill="#000000" font-family="sans-serif" font-size="14" lengthAdjust="spacing" textLength="80.9102" x="466.19" y="506.257">puertas: int</text><ellipse cx="457.19" cy="519.2072" fill="none" rx="3" ry="3" style="stroke:#038048;stroke-width:1.0;"/><text fill="#000000" font-family="sans-serif" font-size="14" lengthAdjust="spacing" textLength="109.8467" x="466.19" y="522.5539">transmision: str</text><ellipse cx="457.19" cy="535.5041" fill="none" rx="3" ry="3" style="stroke:#038048;stroke-width:1.0;"/><text fill="#000000" font-family="sans-serif" font-size="14" lengthAdjust="spacing" textLength="62.1797" x="466.19" y="538.8507">color: str</text><ellipse cx="457.19" cy="551.8009" fill="none" rx="3" ry="3" style="stroke:#038048;stroke-width:1.0;"/><text fill="#000000" font-family="sans-serif" font-size="14" lengthAdjust="spacing" textLength="92.1279" x="466.19" y="555.1476">provincia: str</text><ellipse cx="457.19" cy="568.0978" fill="none" rx="3" ry="3" style="stroke:#038048;stroke-width:1.0;"/><text fill="#000000" font-family="sans-serif" font-size="14" lengthAdjust="spacing" textLength="56.3555" x="466.19" y="571.4445">pais: str</text><line style="stroke:#181818;stroke-width:0.5;" x1="447.19" x2="584.6187" y1="578.7463" y2="578.7463"/></g><!--class DatasetLoader--><g id="elem_DatasetLoader"><rect codeLine="22" fill="#F1F1F1" height="64.2969" id="DatasetLoader" rx="2.5" ry="2.5" style="stroke:#181818;stroke-width:0.5;" width="315.8164" x="7" y="185.5869"/><ellipse cx="109.146" cy="201.5869" fill="#ADD1B2" rx="11" ry="11" style="stroke:#181818;stroke-width:1.0;"/><path d="M112.1147,207.2275 Q111.5366,207.5244 110.896,207.665 Q110.2554,207.8213 109.5522,207.8213 Q107.0522,207.8213 105.7241,206.1806 Q104.4116,204.5244 104.4116,201.3994 Q104.4116,198.2744 105.7241,196.6181 Q107.0522,194.9619 109.5522,194.9619 Q110.2554,194.9619 110.896,195.1181 Q111.5522,195.2744 112.1147,195.5713 L112.1147,198.29 Q111.4897,197.7119 110.896,197.4463 Q110.3022,197.165 109.6772,197.165 Q108.3335,197.165 107.646,198.2431 Q106.9585,199.3056 106.9585,201.3994 Q106.9585,203.4931 107.646,204.5713 Q108.3335,205.6338 109.6772,205.6338 Q110.3022,205.6338 110.896,205.3681 Q111.4897,205.0869 112.1147,204.5088 L112.1147,207.2275 Z " fill="#000000"/><text fill="#000000" font-family="sans-serif" font-size="14" lengthAdjust="spacing" textLength="103.0244" x="129.646" y="206.4336">DatasetLoader</text><line style="stroke:#181818;stroke-width:0.5;" x1="8" x2="321.8164" y1="217.5869" y2="217.5869"/><line style="stroke:#181818;stroke-width:0.5;" x1="8" x2="321.8164" y1="225.5869" y2="225.5869"/><ellipse cx="18" cy="239.2353" fill="#84BE84" rx="3" ry="3" style="stroke:#038048;stroke-width:1.0;"/><text fill="#000000" font-family="sans-serif" font-size="14" lengthAdjust="spacing" textLength="289.8164" x="27" y="242.582">cargar_coches(csv_path: str): List[Coche]</text></g><!--class UserInput--><g id="elem_UserInput"><rect codeLine="26" fill="#F1F1F1" height="64.2969" id="UserInput" rx="2.5" ry="2.5" style="stroke:#181818;stroke-width:0.5;" width="285" x="357.41" y="185.5869"/><ellipse cx="461.5794" cy="201.5869" fill="#ADD1B2" rx="11" ry="11" style="stroke:#181818;stroke-width:1.0;"/><path d="M464.5482,207.2275 Q463.9701,207.5244 463.3294,207.665 Q462.6888,207.8213 461.9857,207.8213 Q459.4857,207.8213 458.1576,206.1806 Q456.8451,204.5244 456.8451,201.3994 Q456.8451,198.2744 458.1576,196.6181 Q459.4857,194.9619 461.9857,194.9619 Q462.6888,194.9619 463.3294,195.1181 Q463.9857,195.2744 464.5482,195.5713 L464.5482,198.29 Q463.9232,197.7119 463.3294,197.4463 Q462.7357,197.165 462.1107,197.165 Q460.7669,197.165 460.0794,198.2431 Q459.3919,199.3056 459.3919,201.3994 Q459.3919,203.4931 460.0794,204.5713 Q460.7669,205.6338 462.1107,205.6338 Q462.7357,205.6338 463.3294,205.3681 Q463.9232,205.0869 464.5482,204.5088 L464.5482,207.2275 Z " fill="#000000"/><text fill="#000000" font-family="sans-serif" font-size="14" lengthAdjust="spacing" textLength="68.1611" x="482.0794" y="206.4336">UserInput</text><line style="stroke:#181818;stroke-width:0.5;" x1="358.41" x2="641.41" y1="217.5869" y2="217.5869"/><line style="stroke:#181818;stroke-width:0.5;" x1="358.41" x2="641.41" y1="225.5869" y2="225.5869"/><ellipse cx="368.41" cy="239.2353" fill="#84BE84" rx="3" ry="3" style="stroke:#038048;stroke-width:1.0;"/><text fill="#000000" font-family="sans-serif" font-size="14" lengthAdjust="spacing" textLength="259" x="377.41" y="242.582">capturar_preferencias_usuario(): dict</text></g><!--class FuzzyLogic--><g id="elem_FuzzyLogic"><rect codeLine="30" fill="#F1F1F1" height="64.2969" id="FuzzyLogic" rx="2.5" ry="2.5" style="stroke:#181818;stroke-width:0.5;" width="415.1768" x="737.32" y="424.6669"/><ellipse cx="902.2848" cy="440.6669" fill="#ADD1B2" rx="11" ry="11" style="stroke:#181818;stroke-width:1.0;"/><path d="M905.2536,446.3075 Q904.6755,446.6044 904.0348,446.745 Q903.3942,446.9013 902.6911,446.9013 Q900.1911,446.9013 898.863,445.2606 Q897.5505,443.6044 897.5505,440.4794 Q897.5505,437.3544 898.863,435.6981 Q900.1911,434.0419 902.6911,434.0419 Q903.3942,434.0419 904.0348,434.1981 Q904.6911,434.3544 905.2536,434.6513 L905.2536,437.37 Q904.6286,436.7919 904.0348,436.5263 Q903.4411,436.245 902.8161,436.245 Q901.4723,436.245 900.7848,437.3231 Q900.0973,438.3856 900.0973,440.4794 Q900.0973,442.5731 900.7848,443.6513 Q901.4723,444.7138 902.8161,444.7138 Q903.4411,444.7138 904.0348,444.4481 Q904.6286,444.1669 905.2536,443.5888 L905.2536,446.3075 Z " fill="#000000"/><text fill="#000000" font-family="sans-serif" font-size="14" lengthAdjust="spacing" textLength="76.7471" x="922.7848" y="445.5136">FuzzyLogic</text><line style="stroke:#181818;stroke-width:0.5;" x1="738.32" x2="1151.4968" y1="456.6669" y2="456.6669"/><line style="stroke:#181818;stroke-width:0.5;" x1="738.32" x2="1151.4968" y1="464.6669" y2="464.6669"/><ellipse cx="748.32" cy="478.3153" fill="#84BE84" rx="3" ry="3" style="stroke:#038048;stroke-width:1.0;"/><text fill="#000000" font-family="sans-serif" font-size="14" lengthAdjust="spacing" textLength="389.1768" x="757.32" y="481.662">calcular_importancia_consumo(valor_usuario: int): float</text></g><!--class RecommendationEngine--><g id="elem_RecommendationEngine"><rect codeLine="34" fill="#F1F1F1" height="64.2969" id="RecommendationEngine" rx="2.5" ry="2.5" style="stroke:#181818;stroke-width:0.5;" width="534.0879" x="677.86" y="185.5869"/><ellipse cx="854.839" cy="201.5869" fill="#ADD1B2" rx="11" ry="11" style="stroke:#181818;stroke-width:1.0;"/><path d="M857.8078,207.2275 Q857.2296,207.5244 856.589,207.665 Q855.9484,207.8213 855.2453,207.8213 Q852.7453,207.8213 851.4171,206.1806 Q850.1046,204.5244 850.1046,201.3994 Q850.1046,198.2744 851.4171,196.6181 Q852.7453,194.9619 855.2453,194.9619 Q855.9484,194.9619 856.589,195.1181 Q857.2453,195.2744 857.8078,195.5713 L857.8078,198.29 Q857.1828,197.7119 856.589,197.4463 Q855.9953,197.165 855.3703,197.165 Q854.0265,197.165 853.339,198.2431 Q852.6515,199.3056 852.6515,201.3994 Q852.6515,203.4931 853.339,204.5713 Q854.0265,205.6338 855.3703,205.6338 Q855.9953,205.6338 856.589,205.3681 Q857.1828,205.0869 857.8078,204.5088 L857.8078,207.2275 Z " fill="#000000"/><text fill="#000000" font-family="sans-serif" font-size="14" lengthAdjust="spacing" textLength="171.6299" x="875.339" y="206.4336">RecommendationEngine</text><line style="stroke:#181818;stroke-width:0.5;" x1="678.86" x2="1210.9479" y1="217.5869" y2="217.5869"/><line style="stroke:#181818;stroke-width:0.5;" x1="678.86" x2="1210.9479" y1="225.5869" y2="225.5869"/><ellipse cx="688.86" cy="239.2353" fill="#84BE84" rx="3" ry="3" style="stroke:#038048;stroke-width:1.0;"/><text fill="#000000" font-family="sans-serif" font-size="14" lengthAdjust="spacing" textLength="508.0879" x="697.86" y="242.582">recomendar_coches(coches: List[Coche], preferencias: dict): List[Coche]</text></g><!--class Main--><g id="elem_Main"><rect codeLine="40" fill="#F1F1F1" height="64.2969" id="Main" rx="2.5" ry="2.5" style="stroke:#181818;stroke-width:0.5;" width="110.6973" x="444.56" y="44.2969"/><ellipse cx="479.9344" cy="60.2969" fill="#ADD1B2" rx="11" ry="11" style="stroke:#181818;stroke-width:1.0;"/><path d="M482.9031,65.9375 Q482.325,66.2344 481.6844,66.375 Q481.0437,66.5313 480.3406,66.5313 Q477.8406,66.5313 476.5125,64.8906 Q475.2,63.2344 475.2,60.1094 Q475.2,56.9844 476.5125,55.3281 Q477.8406,53.6719 480.3406,53.6719 Q481.0437,53.6719 481.6844,53.8281 Q482.3406,53.9844 482.9031,54.2813 L482.9031,57 Q482.2781,56.4219 481.6844,56.1563 Q481.0906,55.875 480.4656,55.875 Q479.1219,55.875 478.4344,56.9531 Q477.7469,58.0156 477.7469,60.1094 Q477.7469,62.2031 478.4344,63.2813 Q479.1219,64.3438 480.4656,64.3438 Q481.0906,64.3438 481.6844,64.0781 Q482.2781,63.7969 482.9031,63.2188 L482.9031,65.9375 Z " fill="#000000"/><text fill="#000000" font-family="sans-serif" font-size="14" lengthAdjust="spacing" textLength="33.4209" x="498.462" y="65.1436">Main</text><line style="stroke:#181818;stroke-width:0.5;" x1="445.56" x2="554.2573" y1="76.2969" y2="76.2969"/><line style="stroke:#181818;stroke-width:0.5;" x1="445.56" x2="554.2573" y1="84.2969" y2="84.2969"/><ellipse cx="455.56" cy="97.9453" fill="#84BE84" rx="3" ry="3" style="stroke:#038048;stroke-width:1.0;"/><text fill="#000000" font-family="sans-serif" font-size="14" lengthAdjust="spacing" textLength="84.6973" x="464.56" y="101.292">main(): void</text></g><!--link Main to DatasetLoader--><g id="link_Main_DatasetLoader"><path codeLine="46" d="M444.36,100.3269 C416.59,111.7869 382.46,125.8969 351.91,138.5869 C315.19,153.8469 279.9854,168.5519 245.9354,182.7919 " fill="none" id="Main-to-DatasetLoader" style="stroke:#181818;stroke-width:1.0;"/><polygon fill="#181818" points="240.4,185.1069,250.2464,185.3247,245.0129,183.1777,247.1598,177.9441,240.4,185.1069" style="stroke:#181818;stroke-width:1.0;"/><text fill="#000000" font-family="sans-serif" font-size="13" lengthAdjust="spacing" textLength="138.4741" x="352.91" y="151.6538">Cargar datos del CSV</text></g><!--link Main to UserInput--><g id="link_Main_UserInput"><path codeLine="47" d="M499.91,109.0469 C499.91,131.8469 499.91,156.4869 499.91,179.2569 " fill="none" id="Main-to-UserInput" style="stroke:#181818;stroke-width:1.0;"/><polygon fill="#181818" points="499.91,185.2569,503.91,176.2569,499.91,180.2569,495.91,176.2569,499.91,185.2569" style="stroke:#181818;stroke-width:1.0;"/><text fill="#000000" font-family="sans-serif" font-size="13" lengthAdjust="spacing" textLength="218.9243" x="500.91" y="151.6538">Capturar preferencias del usuario</text></g><!--link Main to RecommendationEngine--><g id="link_Main_RecommendationEngine"><path codeLine="48" d="M555.57,90.9869 C601.96,102.6069 669.64,120.3169 727.91,138.5869 C772.71,152.6369 816.3644,168.1207 856.6244,183.0507 " fill="none" id="Main-to-RecommendationEngine" style="stroke:#181818;stroke-width:1.0;"/><polygon fill="#181818" points="862.25,185.1369,855.2024,178.2571,857.562,183.3984,852.4207,185.758,862.25,185.1369" style="stroke:#181818;stroke-width:1.0;"/><text fill="#000000" font-family="sans-serif" font-size="13" lengthAdjust="spacing" textLength="173.0371" x="776.91" y="151.6538">Ejecutar recomendaciones</text></g><!--link RecommendationEngine to FuzzyLogic--><g id="link_RecommendationEngine_FuzzyLogic"><path codeLine="49" d="M944.91,250.2169 C944.91,295.5669 944.91,372.7869 944.91,418.2069 " fill="none" id="RecommendationEngine-to-FuzzyLogic" style="stroke:#181818;stroke-width:1.0;"/><polygon fill="#181818" points="944.91,424.2069,948.91,415.2069,944.91,419.2069,940.91,415.2069,944.91,424.2069" style="stroke:#181818;stroke-width:1.0;"/><text fill="#000000" font-family="sans-serif" font-size="13" lengthAdjust="spacing" textLength="154.7368" x="945.91" y="292.9538">Lógica difusa (opcional)</text></g><!--link RecommendationEngine to Coche--><g id="link_RecommendationEngine_Coche"><path codeLine="50" d="M873.92,250.3069 C829.09,270.8569 770.33,298.9569 719.91,326.8869 C674.28,352.1669 629.8022,380.0639 590.9922,405.4339 " fill="none" id="RecommendationEngine-to-Coche" style="stroke:#181818;stroke-width:1.0;"/><polygon fill="#181818" points="585.97,408.7169,595.6919,407.1405,590.1551,405.9811,591.3146,400.4443,585.97,408.7169" style="stroke:#181818;stroke-width:1.0;"/><text fill="#000000" font-family="sans-serif" font-size="13" lengthAdjust="spacing" textLength="87.8452" x="805.91" y="292.9538">Filtrar coches</text></g><!--link DatasetLoader to Coche--><g id="link_DatasetLoader_Coche"><path codeLine="51" d="M211.52,250.2169 C271.47,290.7169 371.1779,358.0586 440.7779,405.0686 " fill="none" id="DatasetLoader-to-Coche" style="stroke:#181818;stroke-width:1.0;"/><polygon fill="#181818" points="445.75,408.4269,440.5307,400.0747,441.6066,405.6283,436.053,406.7041,445.75,408.4269" style="stroke:#181818;stroke-width:1.0;"/><text fill="#000000" font-family="sans-serif" font-size="13" lengthAdjust="spacing" textLength="132.0503" x="279.91" y="292.9538">Crear objetos Coche</text></g><!--SRC=[VPFFRjim3CRlVWhDboLO-m8v31ZST2ZWxj1ikmn3mCXCoamM3Vq9i0vxgZv2NsoKdC3oLYmNsmpv4_dnqviEzsHHFQoRpny-VMpNIXlmlWeK3AeD-O0zg4uIK7EFjWDDByysHHhMZ-ZJsmOFKVvHzs2vgjwgcyGafuIKSP8rEBAQ1Z3egsewB3FKhqh9xrqFJiDA-U3EtzoXuIBGeTUE1ariY-ZWK28hjJSCOGn9gxle0-qC5ebWKnhPSz8FCZ9HS7348ZfmGEaKob145y0N4IcolYS_RqIpOJThZ4yqigOOa1y_VvSwt80SWA5bwD1TzD3W3k2sEkkyqFwq7I0yvkhbIhMocszPl-zprXUFxiuECKoS8KGd955gZowFvxVHHt342q5rfCESSHkVddwsV20zGOoEHY3K3ono98YqPdtiUN42cVn2p3ejB_kOORE9iek2IBUsXsIzym7kOh1fuloOJNgboXd6pl_LOd8W6caZ7bbSQfGVtLmsT0za9_kHJMgScBgHye06ajd4lsY3myBGLPLBhw_V_xMxbQgRl3SbGxBF1pURh_MKF-qdvuwxcSsLYyvg5eMlgYUCzH5r3C9mqnrDJTVLgnK9LUnN0EtBixp9DQTzzA0MdAyOcEL_2EFDbU9RCY4DC6whhkPop58RXvB8koCcPNAu_WC0]--></g></svg>