<svg xmlns="http://www.w3.org/2000/svg" xmlns:xlink="http://www.w3.org/1999/xlink" contentStyleType="text/css" height="946px" preserveAspectRatio="none" style="width:408px;height:946px;background:#FFFFFF;" version="1.1" viewBox="0 0 408 946" width="408px" zoomAndPan="magnify"><defs/><g><ellipse cx="205.7729" cy="20" fill="#222222" rx="10" ry="10" style="stroke:#222222;stroke-width:1;"/><rect fill="#F1F1F1" height="33.9688" rx="12.5" ry="12.5" style="stroke:#181818;stroke-width:0.5;" width="51.752" x="179.897" y="50"/><text fill="#000000" font-family="sans-serif" font-size="12" lengthAdjust="spacing" textLength="31.752" x="189.897" y="71.1387">Inicio</text><rect fill="#F1F1F1" height="33.9688" rx="12.5" ry="12.5" style="stroke:#181818;stroke-width:0.5;" width="153.5117" x="129.0171" y="103.9688"/><text fill="#000000" font-family="sans-serif" font-size="12" lengthAdjust="spacing" textLength="133.5117" x="139.0171" y="125.1074">Verificar Archivos CSV</text><polygon fill="#F1F1F1" points="146.5352,157.9375,265.0107,157.9375,277.0107,169.9375,265.0107,181.9375,146.5352,181.9375,134.5352,169.9375,146.5352,157.9375" style="stroke:#181818;stroke-width:0.5;"/><text fill="#000000" font-family="sans-serif" font-size="11" lengthAdjust="spacing" textLength="118.4756" x="146.5352" y="173.7456">Archivos disponibles?</text><text fill="#000000" font-family="sans-serif" font-size="11" lengthAdjust="spacing" textLength="8.7871" x="125.748" y="167.3433">sí</text><text fill="#000000" font-family="sans-serif" font-size="11" lengthAdjust="spacing" textLength="13.7017" x="277.0107" y="167.3433">no</text><rect fill="#F1F1F1" height="33.9688" rx="12.5" ry="12.5" style="stroke:#181818;stroke-width:0.5;" width="129.9277" x="42.4648" y="191.9375"/><text fill="#000000" font-family="sans-serif" font-size="12" lengthAdjust="spacing" textLength="109.9277" x="52.4648" y="213.0762">Cargar coches.csv</text><rect fill="#F1F1F1" height="33.9688" rx="12.5" ry="12.5" style="stroke:#181818;stroke-width:0.5;" width="154.8359" x="30.0107" y="245.9063"/><text fill="#000000" font-family="sans-serif" font-size="12" lengthAdjust="spacing" textLength="134.8359" x="40.0107" y="267.0449">Cargar car_ratings.csv</text><rect fill="#F1F1F1" height="33.9688" rx="12.5" ry="12.5" style="stroke:#181818;stroke-width:0.5;" width="180.5352" x="17.1611" y="299.875"/><text fill="#000000" font-family="sans-serif" font-size="12" lengthAdjust="spacing" textLength="160.5352" x="27.1611" y="321.0137">Cargar distance_cache.csv</text><rect fill="#F1F1F1" height="33.9688" rx="12.5" ry="12.5" style="stroke:#181818;stroke-width:0.5;" width="172.8418" x="217.6963" y="191.9375"/><text fill="#000000" font-family="sans-serif" font-size="12" lengthAdjust="spacing" textLength="152.8418" x="227.6963" y="213.0762">Mostrar mensaje de error</text><ellipse cx="304.1172" cy="256.9063" fill="none" rx="11" ry="11" style="stroke:#222222;stroke-width:1;"/><ellipse cx="304.1172" cy="256.9063" fill="#222222" rx="6" ry="6" style="stroke:#222222;stroke-width:1;"/><rect fill="#F1F1F1" height="33.9688" rx="12.5" ry="12.5" style="stroke:#181818;stroke-width:0.5;" width="199.2383" x="106.1538" y="353.8438"/><text fill="#000000" font-family="sans-serif" font-size="12" lengthAdjust="spacing" textLength="179.2383" x="116.1538" y="374.9824">Entrenar Modelo Colaborativo</text><polygon fill="#F1F1F1" points="155.6284,407.8125,255.9175,407.8125,267.9175,419.8125,255.9175,431.8125,155.6284,431.8125,143.6284,419.8125,155.6284,407.8125" style="stroke:#181818;stroke-width:0.5;"/><text fill="#000000" font-family="sans-serif" font-size="11" lengthAdjust="spacing" textLength="100.2891" x="155.6284" y="423.6206">Modelo existente?</text><text fill="#000000" font-family="sans-serif" font-size="11" lengthAdjust="spacing" textLength="8.7871" x="134.8413" y="417.2183">sí</text><text fill="#000000" font-family="sans-serif" font-size="11" lengthAdjust="spacing" textLength="13.7017" x="267.9175" y="417.2183">no</text><rect fill="#F1F1F1" height="33.9688" rx="12.5" ry="12.5" style="stroke:#181818;stroke-width:0.5;" width="174.834" x="24.2788" y="441.8125"/><text fill="#000000" font-family="sans-serif" font-size="12" lengthAdjust="spacing" textLength="154.834" x="34.2788" y="462.9512">Cargar modelo entrenado</text><rect fill="#F1F1F1" height="33.9688" rx="12.5" ry="12.5" style="stroke:#181818;stroke-width:0.5;" width="161.4746" x="219.1128" y="441.8125"/><text fill="#000000" font-family="sans-serif" font-size="12" lengthAdjust="spacing" textLength="141.4746" x="229.1128" y="462.9512">Entrenar nuevo modelo</text><polygon fill="#F1F1F1" points="205.7729,481.7813,217.7729,493.7813,205.7729,505.7813,193.7729,493.7813,205.7729,481.7813" style="stroke:#181818;stroke-width:0.5;"/><rect fill="#F1F1F1" height="33.9688" rx="12.5" ry="12.5" style="stroke:#181818;stroke-width:0.5;" width="138.7168" x="136.4146" y="525.7813"/><text fill="#000000" font-family="sans-serif" font-size="12" lengthAdjust="spacing" textLength="118.7168" x="146.4146" y="546.9199">Entrada del Usuario</text><rect fill="#F1F1F1" height="33.9688" rx="12.5" ry="12.5" style="stroke:#181818;stroke-width:0.5;" width="196.9414" x="107.3022" y="579.75"/><text fill="#000000" font-family="sans-serif" font-size="12" lengthAdjust="spacing" textLength="176.9414" x="117.3022" y="600.8887">Solicitar preferencias y pesos</text><rect fill="#F1F1F1" height="33.9688" rx="12.5" ry="12.5" style="stroke:#181818;stroke-width:0.5;" width="164.1992" x="123.6733" y="633.7188"/><text fill="#000000" font-family="sans-serif" font-size="12" lengthAdjust="spacing" textLength="144.1992" x="133.6733" y="654.8574">Comprobar Localización</text><polygon fill="#F1F1F1" points="156.9927,687.6875,254.5532,687.6875,266.5532,699.6875,254.5532,711.6875,156.9927,711.6875,144.9927,699.6875,156.9927,687.6875" style="stroke:#181818;stroke-width:0.5;"/><text fill="#000000" font-family="sans-serif" font-size="11" lengthAdjust="spacing" textLength="97.5605" x="156.9927" y="703.4956">Ciudad en cache?</text><text fill="#000000" font-family="sans-serif" font-size="11" lengthAdjust="spacing" textLength="8.7871" x="136.2056" y="697.0933">sí</text><text fill="#000000" font-family="sans-serif" font-size="11" lengthAdjust="spacing" textLength="13.7017" x="266.5532" y="697.0933">no</text><rect fill="#F1F1F1" height="33.9688" rx="12.5" ry="12.5" style="stroke:#181818;stroke-width:0.5;" width="186.2891" x="11" y="721.6875"/><text fill="#000000" font-family="sans-serif" font-size="12" lengthAdjust="spacing" textLength="166.2891" x="21" y="742.8262">Cargar distancias del cache</text><rect fill="#F1F1F1" height="33.9688" rx="12.5" ry="12.5" style="stroke:#181818;stroke-width:0.5;" width="180.2246" x="217.2891" y="721.6875"/><text fill="#000000" font-family="sans-serif" font-size="12" lengthAdjust="spacing" textLength="160.2246" x="227.2891" y="742.8262">Calcular nuevas distancias</text><polygon fill="#F1F1F1" points="205.7729,761.6563,217.7729,773.6563,205.7729,785.6563,193.7729,773.6563,205.7729,761.6563" style="stroke:#181818;stroke-width:0.5;"/><rect fill="#F1F1F1" height="33.9688" rx="12.5" ry="12.5" style="stroke:#181818;stroke-width:0.5;" width="221.2871" x="95.1294" y="805.6563"/><text fill="#000000" font-family="sans-serif" font-size="12" lengthAdjust="spacing" textLength="201.2871" x="105.1294" y="826.7949">Generación de Recomendaciones</text><rect fill="#F1F1F1" height="33.9688" rx="12.5" ry="12.5" style="stroke:#181818;stroke-width:0.5;" width="103.4258" x="154.0601" y="859.625"/><text fill="#000000" font-family="sans-serif" font-size="12" lengthAdjust="spacing" textLength="83.4258" x="164.0601" y="880.7637">Mostrar Top 5</text><ellipse cx="205.7729" cy="924.5938" fill="none" rx="11" ry="11" style="stroke:#222222;stroke-width:1;"/><ellipse cx="205.7729" cy="924.5938" fill="#222222" rx="6" ry="6" style="stroke:#222222;stroke-width:1;"/><line style="stroke:#181818;stroke-width:1;" x1="205.7729" x2="205.7729" y1="30" y2="50"/><polygon fill="#181818" points="201.7729,40,205.7729,50,209.7729,40,205.7729,44" style="stroke:#181818;stroke-width:1;"/><line style="stroke:#181818;stroke-width:1;" x1="205.7729" x2="205.7729" y1="83.9688" y2="103.9688"/><polygon fill="#181818" points="201.7729,93.9688,205.7729,103.9688,209.7729,93.9688,205.7729,97.9688" style="stroke:#181818;stroke-width:1;"/><line style="stroke:#181818;stroke-width:1;" x1="107.4287" x2="107.4287" y1="225.9063" y2="245.9063"/><polygon fill="#181818" points="103.4287,235.9063,107.4287,245.9063,111.4287,235.9063,107.4287,239.9063" style="stroke:#181818;stroke-width:1;"/><line style="stroke:#181818;stroke-width:1;" x1="107.4287" x2="107.4287" y1="279.875" y2="299.875"/><polygon fill="#181818" points="103.4287,289.875,107.4287,299.875,111.4287,289.875,107.4287,293.875" style="stroke:#181818;stroke-width:1;"/><line style="stroke:#181818;stroke-width:1;" x1="304.1172" x2="304.1172" y1="225.9063" y2="245.9063"/><polygon fill="#181818" points="300.1172,235.9063,304.1172,245.9063,308.1172,235.9063,304.1172,239.9063" style="stroke:#181818;stroke-width:1;"/><line style="stroke:#181818;stroke-width:1;" x1="134.5352" x2="107.4287" y1="169.9375" y2="169.9375"/><line style="stroke:#181818;stroke-width:1;" x1="107.4287" x2="107.4287" y1="169.9375" y2="191.9375"/><polygon fill="#181818" points="103.4287,181.9375,107.4287,191.9375,111.4287,181.9375,107.4287,185.9375" style="stroke:#181818;stroke-width:1;"/><line style="stroke:#181818;stroke-width:1;" x1="277.0107" x2="304.1172" y1="169.9375" y2="169.9375"/><line style="stroke:#181818;stroke-width:1;" x1="304.1172" x2="304.1172" y1="169.9375" y2="191.9375"/><polygon fill="#181818" points="300.1172,181.9375,304.1172,191.9375,308.1172,181.9375,304.1172,185.9375" style="stroke:#181818;stroke-width:1;"/><line style="stroke:#181818;stroke-width:1;" x1="107.4287" x2="107.4287" y1="333.8438" y2="338.8438"/><line style="stroke:#181818;stroke-width:1;" x1="107.4287" x2="205.7729" y1="338.8438" y2="338.8438"/><line style="stroke:#181818;stroke-width:1;" x1="205.7729" x2="205.7729" y1="338.8438" y2="353.8438"/><polygon fill="#181818" points="201.7729,343.8438,205.7729,353.8438,209.7729,343.8438,205.7729,347.8438" style="stroke:#181818;stroke-width:1;"/><line style="stroke:#181818;stroke-width:1;" x1="205.7729" x2="205.7729" y1="137.9375" y2="157.9375"/><polygon fill="#181818" points="201.7729,147.9375,205.7729,157.9375,209.7729,147.9375,205.7729,151.9375" style="stroke:#181818;stroke-width:1;"/><line style="stroke:#181818;stroke-width:1;" x1="143.6284" x2="111.6958" y1="419.8125" y2="419.8125"/><line style="stroke:#181818;stroke-width:1;" x1="111.6958" x2="111.6958" y1="419.8125" y2="441.8125"/><polygon fill="#181818" points="107.6958,431.8125,111.6958,441.8125,115.6958,431.8125,111.6958,435.8125" style="stroke:#181818;stroke-width:1;"/><line style="stroke:#181818;stroke-width:1;" x1="267.9175" x2="299.8501" y1="419.8125" y2="419.8125"/><line style="stroke:#181818;stroke-width:1;" x1="299.8501" x2="299.8501" y1="419.8125" y2="441.8125"/><polygon fill="#181818" points="295.8501,431.8125,299.8501,441.8125,303.8501,431.8125,299.8501,435.8125" style="stroke:#181818;stroke-width:1;"/><line style="stroke:#181818;stroke-width:1;" x1="111.6958" x2="111.6958" y1="475.7813" y2="493.7813"/><line style="stroke:#181818;stroke-width:1;" x1="111.6958" x2="193.7729" y1="493.7813" y2="493.7813"/><polygon fill="#181818" points="183.7729,489.7813,193.7729,493.7813,183.7729,497.7813,187.7729,493.7813" style="stroke:#181818;stroke-width:1;"/><line style="stroke:#181818;stroke-width:1;" x1="299.8501" x2="299.8501" y1="475.7813" y2="493.7813"/><line style="stroke:#181818;stroke-width:1;" x1="299.8501" x2="217.7729" y1="493.7813" y2="493.7813"/><polygon fill="#181818" points="227.7729,489.7813,217.7729,493.7813,227.7729,497.7813,223.7729,493.7813" style="stroke:#181818;stroke-width:1;"/><line style="stroke:#181818;stroke-width:1;" x1="205.7729" x2="205.7729" y1="387.8125" y2="407.8125"/><polygon fill="#181818" points="201.7729,397.8125,205.7729,407.8125,209.7729,397.8125,205.7729,401.8125" style="stroke:#181818;stroke-width:1;"/><line style="stroke:#181818;stroke-width:1;" x1="205.7729" x2="205.7729" y1="505.7813" y2="525.7813"/><polygon fill="#181818" points="201.7729,515.7813,205.7729,525.7813,209.7729,515.7813,205.7729,519.7813" style="stroke:#181818;stroke-width:1;"/><line style="stroke:#181818;stroke-width:1;" x1="205.7729" x2="205.7729" y1="559.75" y2="579.75"/><polygon fill="#181818" points="201.7729,569.75,205.7729,579.75,209.7729,569.75,205.7729,573.75" style="stroke:#181818;stroke-width:1;"/><line style="stroke:#181818;stroke-width:1;" x1="205.7729" x2="205.7729" y1="613.7188" y2="633.7188"/><polygon fill="#181818" points="201.7729,623.7188,205.7729,633.7188,209.7729,623.7188,205.7729,627.7188" style="stroke:#181818;stroke-width:1;"/><line style="stroke:#181818;stroke-width:1;" x1="144.9927" x2="104.1445" y1="699.6875" y2="699.6875"/><line style="stroke:#181818;stroke-width:1;" x1="104.1445" x2="104.1445" y1="699.6875" y2="721.6875"/><polygon fill="#181818" points="100.1445,711.6875,104.1445,721.6875,108.1445,711.6875,104.1445,715.6875" style="stroke:#181818;stroke-width:1;"/><line style="stroke:#181818;stroke-width:1;" x1="266.5532" x2="307.4014" y1="699.6875" y2="699.6875"/><line style="stroke:#181818;stroke-width:1;" x1="307.4014" x2="307.4014" y1="699.6875" y2="721.6875"/><polygon fill="#181818" points="303.4014,711.6875,307.4014,721.6875,311.4014,711.6875,307.4014,715.6875" style="stroke:#181818;stroke-width:1;"/><line style="stroke:#181818;stroke-width:1;" x1="104.1445" x2="104.1445" y1="755.6563" y2="773.6563"/><line style="stroke:#181818;stroke-width:1;" x1="104.1445" x2="193.7729" y1="773.6563" y2="773.6563"/><polygon fill="#181818" points="183.7729,769.6563,193.7729,773.6563,183.7729,777.6563,187.7729,773.6563" style="stroke:#181818;stroke-width:1;"/><line style="stroke:#181818;stroke-width:1;" x1="307.4014" x2="307.4014" y1="755.6563" y2="773.6563"/><line style="stroke:#181818;stroke-width:1;" x1="307.4014" x2="217.7729" y1="773.6563" y2="773.6563"/><polygon fill="#181818" points="227.7729,769.6563,217.7729,773.6563,227.7729,777.6563,223.7729,773.6563" style="stroke:#181818;stroke-width:1;"/><line style="stroke:#181818;stroke-width:1;" x1="205.7729" x2="205.7729" y1="667.6875" y2="687.6875"/><polygon fill="#181818" points="201.7729,677.6875,205.7729,687.6875,209.7729,677.6875,205.7729,681.6875" style="stroke:#181818;stroke-width:1;"/><line style="stroke:#181818;stroke-width:1;" x1="205.7729" x2="205.7729" y1="785.6563" y2="805.6563"/><polygon fill="#181818" points="201.7729,795.6563,205.7729,805.6563,209.7729,795.6563,205.7729,799.6563" style="stroke:#181818;stroke-width:1;"/><line style="stroke:#181818;stroke-width:1;" x1="205.7729" x2="205.7729" y1="839.625" y2="859.625"/><polygon fill="#181818" points="201.7729,849.625,205.7729,859.625,209.7729,849.625,205.7729,853.625" style="stroke:#181818;stroke-width:1;"/><line style="stroke:#181818;stroke-width:1;" x1="205.7729" x2="205.7729" y1="893.5938" y2="913.5938"/><polygon fill="#181818" points="201.7729,903.5938,205.7729,913.5938,209.7729,903.5938,205.7729,907.5938" style="stroke:#181818;stroke-width:1;"/><!--SRC=[TL6nJiD03Dtp5HxRXOsb6H2A44AY2uMkbNldj5TTpv5zYO1_Ok8J-cCuJLIeIcywsS_Fx_bfHib5CNjAmGKkxRSa2NLmA70lRXiwLgWMox88DKnE5H-quHJMaVHk2dbB2IPw-9eMO6zMeMnith7RajuuxShpEifAC8Uq-QTfp1cJevL3cnxw59LWadYadxDcCUYUakAEm1EG2Cj0f9cRWf8FjPbvI5ae6NREdY93nH7Nt2_lUB0qDkZTzbBATDtEVaGEb9ulT9sMfPOw7l7bcHRqQ78Zl6cBqjzxjk1ebxSKe16goGXSG8KFQ4XP-q0gtZV2QqCyiyCOFj65mtSQv5UXzUXD51plTLtzUDUUknTmH5yug32wDeuEKFyC_Tfuf4GoIEWl_qAEBGXl5Kvak5Cyhzp0hHde0_a1]--></g></svg>