<svg xmlns="http://www.w3.org/2000/svg" xmlns:xlink="http://www.w3.org/1999/xlink" contentStyleType="text/css" height="1096px" preserveAspectRatio="none" style="width:1935px;height:1096px;background:#FFFFFF;" version="1.1" viewBox="0 0 1935 1096" width="1935px" zoomAndPan="magnify"><defs/><g><ellipse cx="1064.0928" cy="20" fill="#222222" rx="10" ry="10" style="stroke:#222222;stroke-width:1.0;"/><rect fill="#F1F1F1" height="33.9688" rx="12.5" ry="12.5" style="stroke:#181818;stroke-width:0.5;" width="228.4238" x="949.8809" y="50"/><text fill="#000000" font-family="sans-serif" font-size="12" lengthAdjust="spacing" textLength="208.4238" x="959.8809" y="71.1387">El usuario visita la p&#225;gina de inicio</text><polygon fill="#F1F1F1" points="987.6943,103.9688,1140.4912,103.9688,1152.4912,115.9688,1140.4912,127.9688,987.6943,127.9688,975.6943,115.9688,987.6943,103.9688" style="stroke:#181818;stroke-width:0.5;"/><text fill="#000000" font-family="sans-serif" font-size="11" lengthAdjust="spacing" textLength="152.7969" x="987.6943" y="119.7769">&#191;El usuario est&#225; registrado?</text><text fill="#000000" font-family="sans-serif" font-size="11" lengthAdjust="spacing" textLength="8.7871" x="966.9072" y="113.3745">s&#237;</text><text fill="#000000" font-family="sans-serif" font-size="11" lengthAdjust="spacing" textLength="13.7017" x="1152.4912" y="113.3745">no</text><rect fill="#F1F1F1" height="33.9688" rx="12.5" ry="12.5" style="stroke:#181818;stroke-width:0.5;" width="156.5117" x="520.4817" y="137.9688"/><text fill="#000000" font-family="sans-serif" font-size="12" lengthAdjust="spacing" textLength="136.5117" x="530.4817" y="159.1074">El usuario inicia sesi&#243;n</text><polygon fill="#F1F1F1" points="528.814,191.9375,668.6611,191.9375,680.6611,203.9375,668.6611,215.9375,528.814,215.9375,516.814,203.9375,528.814,191.9375" style="stroke:#181818;stroke-width:0.5;"/><text fill="#000000" font-family="sans-serif" font-size="11" lengthAdjust="spacing" textLength="139.8472" x="528.814" y="207.7456">&#191;Inicio de sesi&#243;n exitoso?</text><text fill="#000000" font-family="sans-serif" font-size="11" lengthAdjust="spacing" textLength="8.7871" x="508.0269" y="201.3433">s&#237;</text><text fill="#000000" font-family="sans-serif" font-size="11" lengthAdjust="spacing" textLength="13.7017" x="680.6611" y="201.3433">no</text><rect fill="#F1F1F1" height="33.9688" rx="12.5" ry="12.5" style="stroke:#181818;stroke-width:0.5;" width="242.4395" x="223.189" y="225.9375"/><text fill="#000000" font-family="sans-serif" font-size="12" lengthAdjust="spacing" textLength="222.4395" x="233.189" y="247.0762">Recuperar pesos de la base de datos</text><rect fill="#F1F1F1" height="33.9688" rx="12.5" ry="12.5" style="stroke:#181818;stroke-width:0.5;" width="222.084" x="233.3667" y="294.9063"/><text fill="#000000" font-family="sans-serif" font-size="12" lengthAdjust="spacing" textLength="202.084" x="243.3667" y="316.0449">Capturar preferencias del usuario</text><rect fill="#F1F1F1" height="33.9688" rx="12.5" ry="12.5" style="stroke:#181818;stroke-width:0.5;" width="257.4336" x="215.6919" y="363.875"/><text fill="#000000" font-family="sans-serif" font-size="12" lengthAdjust="spacing" textLength="237.4336" x="225.6919" y="385.0137">Cargar datos de coches y calificaciones</text><rect fill="#F1F1F1" height="33.9688" rx="12.5" ry="12.5" style="stroke:#181818;stroke-width:0.5;" width="240.9336" x="223.9419" y="432.8438"/><text fill="#000000" font-family="sans-serif" font-size="12" lengthAdjust="spacing" textLength="220.9336" x="233.9419" y="453.9824">Filtrar coches seg&#250;n las preferencias</text><polygon fill="#F1F1F1" points="274.1414,501.8125,414.676,501.8125,426.676,513.8125,414.676,525.8125,274.1414,525.8125,262.1414,513.8125,274.1414,501.8125" style="stroke:#181818;stroke-width:0.5;"/><text fill="#000000" font-family="sans-serif" font-size="11" lengthAdjust="spacing" textLength="140.5347" x="274.1414" y="517.6206">&#191;Hay coches disponibles?</text><text fill="#000000" font-family="sans-serif" font-size="11" lengthAdjust="spacing" textLength="8.7871" x="253.3542" y="511.2183">s&#237;</text><text fill="#000000" font-family="sans-serif" font-size="11" lengthAdjust="spacing" textLength="13.7017" x="426.676" y="511.2183">no</text><rect fill="#F1F1F1" height="33.9688" rx="12.5" ry="12.5" style="stroke:#181818;stroke-width:0.5;" width="133.1094" x="96.541" y="535.8125"/><text fill="#000000" font-family="sans-serif" font-size="12" lengthAdjust="spacing" textLength="113.1094" x="106.541" y="556.9512">Calcular distancias</text><rect fill="#F1F1F1" height="33.9688" rx="12.5" ry="12.5" style="stroke:#181818;stroke-width:0.5;" width="304.1914" x="11" y="604.7813"/><text fill="#000000" font-family="sans-serif" font-size="12" lengthAdjust="spacing" textLength="284.1914" x="21" y="625.9199">Predecir calificaciones para los coches filtrados</text><rect fill="#F1F1F1" height="33.9688" rx="12.5" ry="12.5" style="stroke:#181818;stroke-width:0.5;" width="248.9902" x="38.6006" y="673.75"/><text fill="#000000" font-family="sans-serif" font-size="12" lengthAdjust="spacing" textLength="228.9902" x="48.6006" y="694.8887">Mostrar las mejores recomendaciones</text><rect fill="#F1F1F1" height="33.9688" rx="12.5" ry="12.5" style="stroke:#181818;stroke-width:0.5;" width="381.0605" x="335.1914" y="535.8125"/><text fill="#000000" font-family="sans-serif" font-size="12" lengthAdjust="spacing" textLength="361.0605" x="345.1914" y="556.9512">Mostrar "No hay coches que coincidan con las preferencias"</text><polygon fill="#F1F1F1" points="344.4087,713.7188,356.4087,725.7188,344.4087,737.7188,332.4087,725.7188,344.4087,713.7188" style="stroke:#181818;stroke-width:0.5;"/><rect fill="#F1F1F1" height="33.9688" rx="12.5" ry="12.5" style="stroke:#181818;stroke-width:0.5;" width="213.6289" x="726.252" y="225.9375"/><text fill="#000000" font-family="sans-serif" font-size="12" lengthAdjust="spacing" textLength="193.6289" x="736.252" y="247.0762">Mostrar "Inicio de sesi&#243;n fallido"</text><polygon fill="#F1F1F1" points="598.7375,743.7188,610.7375,755.7188,598.7375,767.7188,586.7375,755.7188,598.7375,743.7188" style="stroke:#181818;stroke-width:0.5;"/><rect fill="#F1F1F1" height="33.9688" rx="12.5" ry="12.5" style="stroke:#181818;stroke-width:0.5;" width="146.9316" x="1490.0674" y="137.9688"/><text fill="#000000" font-family="sans-serif" font-size="12" lengthAdjust="spacing" textLength="126.9316" x="1500.0674" y="159.1074">El usuario se registra</text><rect fill="#F1F1F1" height="33.9688" rx="12.5" ry="12.5" style="stroke:#181818;stroke-width:0.5;" width="312.166" x="1407.4502" y="191.9375"/><text fill="#000000" font-family="sans-serif" font-size="12" lengthAdjust="spacing" textLength="292.166" x="1417.4502" y="213.0762">Establecer importancia de los par&#225;metros (1-10)</text><rect fill="#F1F1F1" height="33.9688" rx="12.5" ry="12.5" style="stroke:#181818;stroke-width:0.5;" width="389.498" x="1368.7842" y="260.9063"/><text fill="#000000" font-family="sans-serif" font-size="12" lengthAdjust="spacing" textLength="369.498" x="1378.7842" y="282.0449">Guardar preferencias y pesos del usuario en la base de datos</text><rect fill="#F1F1F1" height="33.9688" rx="12.5" ry="12.5" style="stroke:#181818;stroke-width:0.5;" width="287.2285" x="1419.9189" y="329.875"/><text fill="#000000" font-family="sans-serif" font-size="12" lengthAdjust="spacing" textLength="267.2285" x="1429.9189" y="351.0137">El usuario debe iniciar sesi&#243;n para continuar</text><rect fill="#F1F1F1" height="33.9688" rx="12.5" ry="12.5" style="stroke:#181818;stroke-width:0.5;" width="156.5117" x="1485.2773" y="398.8438"/><text fill="#000000" font-family="sans-serif" font-size="12" lengthAdjust="spacing" textLength="136.5117" x="1495.2773" y="419.9824">El usuario inicia sesi&#243;n</text><polygon fill="#F1F1F1" points="1493.6096,467.8125,1633.4568,467.8125,1645.4568,479.8125,1633.4568,491.8125,1493.6096,491.8125,1481.6096,479.8125,1493.6096,467.8125" style="stroke:#181818;stroke-width:0.5;"/><text fill="#000000" font-family="sans-serif" font-size="11" lengthAdjust="spacing" textLength="139.8472" x="1493.6096" y="483.6206">&#191;Inicio de sesi&#243;n exitoso?</text><text fill="#000000" font-family="sans-serif" font-size="11" lengthAdjust="spacing" textLength="8.7871" x="1472.8225" y="477.2183">s&#237;</text><text fill="#000000" font-family="sans-serif" font-size="11" lengthAdjust="spacing" textLength="13.7017" x="1645.4568" y="477.2183">no</text><rect fill="#F1F1F1" height="33.9688" rx="12.5" ry="12.5" style="stroke:#181818;stroke-width:0.5;" width="242.4395" x="1187.9846" y="501.8125"/><text fill="#000000" font-family="sans-serif" font-size="12" lengthAdjust="spacing" textLength="222.4395" x="1197.9846" y="522.9512">Recuperar pesos de la base de datos</text><rect fill="#F1F1F1" height="33.9688" rx="12.5" ry="12.5" style="stroke:#181818;stroke-width:0.5;" width="222.084" x="1198.1624" y="570.7813"/><text fill="#000000" font-family="sans-serif" font-size="12" lengthAdjust="spacing" textLength="202.084" x="1208.1624" y="591.9199">Capturar preferencias del usuario</text><rect fill="#F1F1F1" height="33.9688" rx="12.5" ry="12.5" style="stroke:#181818;stroke-width:0.5;" width="257.4336" x="1180.4875" y="639.75"/><text fill="#000000" font-family="sans-serif" font-size="12" lengthAdjust="spacing" textLength="237.4336" x="1190.4875" y="660.8887">Cargar datos de coches y calificaciones</text><rect fill="#F1F1F1" height="33.9688" rx="12.5" ry="12.5" style="stroke:#181818;stroke-width:0.5;" width="240.9336" x="1188.7375" y="708.7188"/><text fill="#000000" font-family="sans-serif" font-size="12" lengthAdjust="spacing" textLength="220.9336" x="1198.7375" y="729.8574">Filtrar coches seg&#250;n las preferencias</text><polygon fill="#F1F1F1" points="1238.937,777.6875,1379.4717,777.6875,1391.4717,789.6875,1379.4717,801.6875,1238.937,801.6875,1226.937,789.6875,1238.937,777.6875" style="stroke:#181818;stroke-width:0.5;"/><text fill="#000000" font-family="sans-serif" font-size="11" lengthAdjust="spacing" textLength="140.5347" x="1238.937" y="793.4956">&#191;Hay coches disponibles?</text><text fill="#000000" font-family="sans-serif" font-size="11" lengthAdjust="spacing" textLength="8.7871" x="1218.1499" y="787.0933">s&#237;</text><text fill="#000000" font-family="sans-serif" font-size="11" lengthAdjust="spacing" textLength="13.7017" x="1391.4717" y="787.0933">no</text><rect fill="#F1F1F1" height="33.9688" rx="12.5" ry="12.5" style="stroke:#181818;stroke-width:0.5;" width="133.1094" x="1061.3367" y="811.6875"/><text fill="#000000" font-family="sans-serif" font-size="12" lengthAdjust="spacing" textLength="113.1094" x="1071.3367" y="832.8262">Calcular distancias</text><rect fill="#F1F1F1" height="33.9688" rx="12.5" ry="12.5" style="stroke:#181818;stroke-width:0.5;" width="304.1914" x="975.7957" y="865.6563"/><text fill="#000000" font-family="sans-serif" font-size="12" lengthAdjust="spacing" textLength="284.1914" x="985.7957" y="886.7949">Predecir calificaciones para los coches filtrados</text><rect fill="#F1F1F1" height="33.9688" rx="12.5" ry="12.5" style="stroke:#181818;stroke-width:0.5;" width="248.9902" x="1003.3962" y="919.625"/><text fill="#000000" font-family="sans-serif" font-size="12" lengthAdjust="spacing" textLength="228.9902" x="1013.3962" y="940.7637">Mostrar las mejores recomendaciones</text><rect fill="#F1F1F1" height="33.9688" rx="12.5" ry="12.5" style="stroke:#181818;stroke-width:0.5;" width="381.0605" x="1299.9871" y="811.6875"/><text fill="#000000" font-family="sans-serif" font-size="12" lengthAdjust="spacing" textLength="361.0605" x="1309.9871" y="832.8262">Mostrar "No hay coches que coincidan con las preferencias"</text><polygon fill="#F1F1F1" points="1309.2043,959.5938,1321.2043,971.5938,1309.2043,983.5938,1297.2043,971.5938,1309.2043,959.5938" style="stroke:#181818;stroke-width:0.5;"/><rect fill="#F1F1F1" height="33.9688" rx="12.5" ry="12.5" style="stroke:#181818;stroke-width:0.5;" width="213.6289" x="1711.0476" y="501.8125"/><text fill="#000000" font-family="sans-serif" font-size="12" lengthAdjust="spacing" textLength="193.6289" x="1721.0476" y="522.9512">Mostrar "Inicio de sesi&#243;n fallido"</text><polygon fill="#F1F1F1" points="1563.5332,989.5938,1575.5332,1001.5938,1563.5332,1013.5938,1551.5332,1001.5938,1563.5332,989.5938" style="stroke:#181818;stroke-width:0.5;"/><polygon fill="#F1F1F1" points="1064.0928,1019.5938,1076.0928,1031.5938,1064.0928,1043.5938,1052.0928,1031.5938,1064.0928,1019.5938" style="stroke:#181818;stroke-width:0.5;"/><ellipse cx="1064.0928" cy="1074.5938" fill="none" rx="11" ry="11" style="stroke:#222222;stroke-width:1.0;"/><ellipse cx="1064.0928" cy="1074.5938" fill="#222222" rx="6" ry="6" style="stroke:#222222;stroke-width:1.0;"/><line style="stroke:#181818;stroke-width:1.0;" x1="1064.0928" x2="1064.0928" y1="30" y2="50"/><polygon fill="#181818" points="1060.0928,40,1064.0928,50,1068.0928,40,1064.0928,44" style="stroke:#181818;stroke-width:1.0;"/><line style="stroke:#181818;stroke-width:1.0;" x1="344.4087" x2="344.4087" y1="259.9063" y2="294.9063"/><polygon fill="#181818" points="340.4087,284.9063,344.4087,294.9063,348.4087,284.9063,344.4087,288.9063" style="stroke:#181818;stroke-width:1.0;"/><line style="stroke:#181818;stroke-width:1.0;" x1="344.4087" x2="344.4087" y1="328.875" y2="363.875"/><polygon fill="#181818" points="340.4087,353.875,344.4087,363.875,348.4087,353.875,344.4087,357.875" style="stroke:#181818;stroke-width:1.0;"/><line style="stroke:#181818;stroke-width:1.0;" x1="344.4087" x2="344.4087" y1="397.8438" y2="432.8438"/><polygon fill="#181818" points="340.4087,422.8438,344.4087,432.8438,348.4087,422.8438,344.4087,426.8438" style="stroke:#181818;stroke-width:1.0;"/><line style="stroke:#181818;stroke-width:1.0;" x1="163.0957" x2="163.0957" y1="569.7813" y2="604.7813"/><polygon fill="#181818" points="159.0957,594.7813,163.0957,604.7813,167.0957,594.7813,163.0957,598.7813" style="stroke:#181818;stroke-width:1.0;"/><line style="stroke:#181818;stroke-width:1.0;" x1="163.0957" x2="163.0957" y1="638.75" y2="673.75"/><polygon fill="#181818" points="159.0957,663.75,163.0957,673.75,167.0957,663.75,163.0957,667.75" style="stroke:#181818;stroke-width:1.0;"/><line style="stroke:#181818;stroke-width:1.0;" x1="262.1414" x2="163.0957" y1="513.8125" y2="513.8125"/><line style="stroke:#181818;stroke-width:1.0;" x1="163.0957" x2="163.0957" y1="513.8125" y2="535.8125"/><polygon fill="#181818" points="159.0957,525.8125,163.0957,535.8125,167.0957,525.8125,163.0957,529.8125" style="stroke:#181818;stroke-width:1.0;"/><line style="stroke:#181818;stroke-width:1.0;" x1="426.676" x2="525.7217" y1="513.8125" y2="513.8125"/><line style="stroke:#181818;stroke-width:1.0;" x1="525.7217" x2="525.7217" y1="513.8125" y2="535.8125"/><polygon fill="#181818" points="521.7217,525.8125,525.7217,535.8125,529.7217,525.8125,525.7217,529.8125" style="stroke:#181818;stroke-width:1.0;"/><line style="stroke:#181818;stroke-width:1.0;" x1="163.0957" x2="163.0957" y1="707.7188" y2="725.7188"/><line style="stroke:#181818;stroke-width:1.0;" x1="163.0957" x2="332.4087" y1="725.7188" y2="725.7188"/><polygon fill="#181818" points="322.4087,721.7188,332.4087,725.7188,322.4087,729.7188,326.4087,725.7188" style="stroke:#181818;stroke-width:1.0;"/><line style="stroke:#181818;stroke-width:1.0;" x1="525.7217" x2="525.7217" y1="569.7813" y2="725.7188"/><line style="stroke:#181818;stroke-width:1.0;" x1="525.7217" x2="356.4087" y1="725.7188" y2="725.7188"/><polygon fill="#181818" points="366.4087,721.7188,356.4087,725.7188,366.4087,729.7188,362.4087,725.7188" style="stroke:#181818;stroke-width:1.0;"/><line style="stroke:#181818;stroke-width:1.0;" x1="344.4087" x2="344.4087" y1="466.8125" y2="501.8125"/><polygon fill="#181818" points="340.4087,491.8125,344.4087,501.8125,348.4087,491.8125,344.4087,495.8125" style="stroke:#181818;stroke-width:1.0;"/><line style="stroke:#181818;stroke-width:1.0;" x1="516.814" x2="344.4087" y1="203.9375" y2="203.9375"/><line style="stroke:#181818;stroke-width:1.0;" x1="344.4087" x2="344.4087" y1="203.9375" y2="225.9375"/><polygon fill="#181818" points="340.4087,215.9375,344.4087,225.9375,348.4087,215.9375,344.4087,219.9375" style="stroke:#181818;stroke-width:1.0;"/><line style="stroke:#181818;stroke-width:1.0;" x1="680.6611" x2="833.0664" y1="203.9375" y2="203.9375"/><line style="stroke:#181818;stroke-width:1.0;" x1="833.0664" x2="833.0664" y1="203.9375" y2="225.9375"/><polygon fill="#181818" points="829.0664,215.9375,833.0664,225.9375,837.0664,215.9375,833.0664,219.9375" style="stroke:#181818;stroke-width:1.0;"/><line style="stroke:#181818;stroke-width:1.0;" x1="344.4087" x2="344.4087" y1="737.7188" y2="755.7188"/><line style="stroke:#181818;stroke-width:1.0;" x1="344.4087" x2="586.7375" y1="755.7188" y2="755.7188"/><polygon fill="#181818" points="576.7375,751.7188,586.7375,755.7188,576.7375,759.7188,580.7375,755.7188" style="stroke:#181818;stroke-width:1.0;"/><line style="stroke:#181818;stroke-width:1.0;" x1="833.0664" x2="833.0664" y1="259.9063" y2="755.7188"/><line style="stroke:#181818;stroke-width:1.0;" x1="833.0664" x2="610.7375" y1="755.7188" y2="755.7188"/><polygon fill="#181818" points="620.7375,751.7188,610.7375,755.7188,620.7375,759.7188,616.7375,755.7188" style="stroke:#181818;stroke-width:1.0;"/><line style="stroke:#181818;stroke-width:1.0;" x1="598.7375" x2="598.7375" y1="171.9375" y2="191.9375"/><polygon fill="#181818" points="594.7375,181.9375,598.7375,191.9375,602.7375,181.9375,598.7375,185.9375" style="stroke:#181818;stroke-width:1.0;"/><line style="stroke:#181818;stroke-width:1.0;" x1="1563.5332" x2="1563.5332" y1="171.9375" y2="191.9375"/><polygon fill="#181818" points="1559.5332,181.9375,1563.5332,191.9375,1567.5332,181.9375,1563.5332,185.9375" style="stroke:#181818;stroke-width:1.0;"/><line style="stroke:#181818;stroke-width:1.0;" x1="1563.5332" x2="1563.5332" y1="225.9063" y2="260.9063"/><polygon fill="#181818" points="1559.5332,250.9063,1563.5332,260.9063,1567.5332,250.9063,1563.5332,254.9063" style="stroke:#181818;stroke-width:1.0;"/><line style="stroke:#181818;stroke-width:1.0;" x1="1563.5332" x2="1563.5332" y1="294.875" y2="329.875"/><polygon fill="#181818" points="1559.5332,319.875,1563.5332,329.875,1567.5332,319.875,1563.5332,323.875" style="stroke:#181818;stroke-width:1.0;"/><line style="stroke:#181818;stroke-width:1.0;" x1="1563.5332" x2="1563.5332" y1="363.8438" y2="398.8438"/><polygon fill="#181818" points="1559.5332,388.8438,1563.5332,398.8438,1567.5332,388.8438,1563.5332,392.8438" style="stroke:#181818;stroke-width:1.0;"/><line style="stroke:#181818;stroke-width:1.0;" x1="1309.2043" x2="1309.2043" y1="535.7813" y2="570.7813"/><polygon fill="#181818" points="1305.2043,560.7813,1309.2043,570.7813,1313.2043,560.7813,1309.2043,564.7813" style="stroke:#181818;stroke-width:1.0;"/><line style="stroke:#181818;stroke-width:1.0;" x1="1309.2043" x2="1309.2043" y1="604.75" y2="639.75"/><polygon fill="#181818" points="1305.2043,629.75,1309.2043,639.75,1313.2043,629.75,1309.2043,633.75" style="stroke:#181818;stroke-width:1.0;"/><line style="stroke:#181818;stroke-width:1.0;" x1="1309.2043" x2="1309.2043" y1="673.7188" y2="708.7188"/><polygon fill="#181818" points="1305.2043,698.7188,1309.2043,708.7188,1313.2043,698.7188,1309.2043,702.7188" style="stroke:#181818;stroke-width:1.0;"/><line style="stroke:#181818;stroke-width:1.0;" x1="1127.8914" x2="1127.8914" y1="845.6563" y2="865.6563"/><polygon fill="#181818" points="1123.8914,855.6563,1127.8914,865.6563,1131.8914,855.6563,1127.8914,859.6563" style="stroke:#181818;stroke-width:1.0;"/><line style="stroke:#181818;stroke-width:1.0;" x1="1127.8914" x2="1127.8914" y1="899.625" y2="919.625"/><polygon fill="#181818" points="1123.8914,909.625,1127.8914,919.625,1131.8914,909.625,1127.8914,913.625" style="stroke:#181818;stroke-width:1.0;"/><line style="stroke:#181818;stroke-width:1.0;" x1="1226.937" x2="1127.8914" y1="789.6875" y2="789.6875"/><line style="stroke:#181818;stroke-width:1.0;" x1="1127.8914" x2="1127.8914" y1="789.6875" y2="811.6875"/><polygon fill="#181818" points="1123.8914,801.6875,1127.8914,811.6875,1131.8914,801.6875,1127.8914,805.6875" style="stroke:#181818;stroke-width:1.0;"/><line style="stroke:#181818;stroke-width:1.0;" x1="1391.4717" x2="1490.5173" y1="789.6875" y2="789.6875"/><line style="stroke:#181818;stroke-width:1.0;" x1="1490.5173" x2="1490.5173" y1="789.6875" y2="811.6875"/><polygon fill="#181818" points="1486.5173,801.6875,1490.5173,811.6875,1494.5173,801.6875,1490.5173,805.6875" style="stroke:#181818;stroke-width:1.0;"/><line style="stroke:#181818;stroke-width:1.0;" x1="1127.8914" x2="1127.8914" y1="953.5938" y2="971.5938"/><line style="stroke:#181818;stroke-width:1.0;" x1="1127.8914" x2="1297.2043" y1="971.5938" y2="971.5938"/><polygon fill="#181818" points="1287.2043,967.5938,1297.2043,971.5938,1287.2043,975.5938,1291.2043,971.5938" style="stroke:#181818;stroke-width:1.0;"/><line style="stroke:#181818;stroke-width:1.0;" x1="1490.5173" x2="1490.5173" y1="845.6563" y2="971.5938"/><line style="stroke:#181818;stroke-width:1.0;" x1="1490.5173" x2="1321.2043" y1="971.5938" y2="971.5938"/><polygon fill="#181818" points="1331.2043,967.5938,1321.2043,971.5938,1331.2043,975.5938,1327.2043,971.5938" style="stroke:#181818;stroke-width:1.0;"/><line style="stroke:#181818;stroke-width:1.0;" x1="1309.2043" x2="1309.2043" y1="742.6875" y2="777.6875"/><polygon fill="#181818" points="1305.2043,767.6875,1309.2043,777.6875,1313.2043,767.6875,1309.2043,771.6875" style="stroke:#181818;stroke-width:1.0;"/><line style="stroke:#181818;stroke-width:1.0;" x1="1481.6096" x2="1309.2043" y1="479.8125" y2="479.8125"/><line style="stroke:#181818;stroke-width:1.0;" x1="1309.2043" x2="1309.2043" y1="479.8125" y2="501.8125"/><polygon fill="#181818" points="1305.2043,491.8125,1309.2043,501.8125,1313.2043,491.8125,1309.2043,495.8125" style="stroke:#181818;stroke-width:1.0;"/><line style="stroke:#181818;stroke-width:1.0;" x1="1645.4568" x2="1817.8621" y1="479.8125" y2="479.8125"/><line style="stroke:#181818;stroke-width:1.0;" x1="1817.8621" x2="1817.8621" y1="479.8125" y2="501.8125"/><polygon fill="#181818" points="1813.8621,491.8125,1817.8621,501.8125,1821.8621,491.8125,1817.8621,495.8125" style="stroke:#181818;stroke-width:1.0;"/><line style="stroke:#181818;stroke-width:1.0;" x1="1309.2043" x2="1309.2043" y1="983.5938" y2="1001.5938"/><line style="stroke:#181818;stroke-width:1.0;" x1="1309.2043" x2="1551.5332" y1="1001.5938" y2="1001.5938"/><polygon fill="#181818" points="1541.5332,997.5938,1551.5332,1001.5938,1541.5332,1005.5938,1545.5332,1001.5938" style="stroke:#181818;stroke-width:1.0;"/><line style="stroke:#181818;stroke-width:1.0;" x1="1817.8621" x2="1817.8621" y1="535.7813" y2="1001.5938"/><line style="stroke:#181818;stroke-width:1.0;" x1="1817.8621" x2="1575.5332" y1="1001.5938" y2="1001.5938"/><polygon fill="#181818" points="1585.5332,997.5938,1575.5332,1001.5938,1585.5332,1005.5938,1581.5332,1001.5938" style="stroke:#181818;stroke-width:1.0;"/><line style="stroke:#181818;stroke-width:1.0;" x1="1563.5332" x2="1563.5332" y1="432.8125" y2="467.8125"/><polygon fill="#181818" points="1559.5332,457.8125,1563.5332,467.8125,1567.5332,457.8125,1563.5332,461.8125" style="stroke:#181818;stroke-width:1.0;"/><line style="stroke:#181818;stroke-width:1.0;" x1="975.6943" x2="598.7375" y1="115.9688" y2="115.9688"/><line style="stroke:#181818;stroke-width:1.0;" x1="598.7375" x2="598.7375" y1="115.9688" y2="137.9688"/><polygon fill="#181818" points="594.7375,127.9688,598.7375,137.9688,602.7375,127.9688,598.7375,131.9688" style="stroke:#181818;stroke-width:1.0;"/><line style="stroke:#181818;stroke-width:1.0;" x1="1152.4912" x2="1563.5332" y1="115.9688" y2="115.9688"/><line style="stroke:#181818;stroke-width:1.0;" x1="1563.5332" x2="1563.5332" y1="115.9688" y2="137.9688"/><polygon fill="#181818" points="1559.5332,127.9688,1563.5332,137.9688,1567.5332,127.9688,1563.5332,131.9688" style="stroke:#181818;stroke-width:1.0;"/><line style="stroke:#181818;stroke-width:1.0;" x1="598.7375" x2="598.7375" y1="767.7188" y2="1031.5938"/><line style="stroke:#181818;stroke-width:1.0;" x1="598.7375" x2="1052.0928" y1="1031.5938" y2="1031.5938"/><polygon fill="#181818" points="1042.0928,1027.5938,1052.0928,1031.5938,1042.0928,1035.5938,1046.0928,1031.5938" style="stroke:#181818;stroke-width:1.0;"/><line style="stroke:#181818;stroke-width:1.0;" x1="1563.5332" x2="1563.5332" y1="1013.5938" y2="1031.5938"/><line style="stroke:#181818;stroke-width:1.0;" x1="1563.5332" x2="1076.0928" y1="1031.5938" y2="1031.5938"/><polygon fill="#181818" points="1086.0928,1027.5938,1076.0928,1031.5938,1086.0928,1035.5938,1082.0928,1031.5938" style="stroke:#181818;stroke-width:1.0;"/><line style="stroke:#181818;stroke-width:1.0;" x1="1064.0928" x2="1064.0928" y1="83.9688" y2="103.9688"/><polygon fill="#181818" points="1060.0928,93.9688,1064.0928,103.9688,1068.0928,93.9688,1064.0928,97.9688" style="stroke:#181818;stroke-width:1.0;"/><line style="stroke:#181818;stroke-width:1.0;" x1="1064.0928" x2="1064.0928" y1="1043.5938" y2="1063.5938"/><polygon fill="#181818" points="1060.0928,1053.5938,1064.0928,1063.5938,1068.0928,1053.5938,1064.0928,1057.5938" style="stroke:#181818;stroke-width:1.0;"/><!--SRC=[xPCxZXin38PxduBOoYu2PDkTOeiWhs8NYzo0bZWs0rcSY9eWFeuFa6gxD04o5mibZzVZH-eqwy8GHZy__gH8pPZoxEvzW5vxJ2pmdPKpGa3eXjsA8u8duCYEfPbn2_C_loTgqZpi8D6ADIVqSh-0lAO8Snr-BcPWlocxOX2Kb8VdsDJxFV9pJL1IZPT0FpYBNW5Mw1ToVKS94tIaeYNG72zHgHmzMcXpLB_3BlTLdAYbHD5Sb9WNPoVQj39bHHIM4xScXIqu3DooG_CPQKh_m24N-AXKMWs_ejdHatJ7W7t5dt1xYF2idKHU1jBhvOx6Wkj3iMQznZDcLJmbykGudLc53fCzg9KpvckhOI_dyG-YjP1YVKDV9PasaPCDHNzHDWNhzJpAuZhZvb5WVIpnMrywoURQOxJJPNzk9kZekPrTJt9CS3aoBOR0NaRIdd9Ac0wZVJ_CRJDUMb_j4Hmbu4qdQT_bEbjIkpZiDfIJdUUtRsxVBiQmZyRpvyErVHdCoRB4Vmpfr9QdvRXlXZnKLb_GkfOvcgfvNQpNnVhlYrN_DKlt5m00]--></g></svg>