<svg xmlns="http://www.w3.org/2000/svg" xmlns:xlink="http://www.w3.org/1999/xlink" contentStyleType="text/css" height="602px" preserveAspectRatio="none" style="width:680px;height:602px;background:#FFFFFF;" version="1.1" viewBox="0 0 680 602" width="680px" zoomAndPan="magnify"><defs/><g><ellipse cx="279.1865" cy="20" fill="#222222" rx="10" ry="10" style="stroke:#222222;stroke-width:1;"/><rect fill="#F1F1F1" height="33.9688" rx="12.5" ry="12.5" style="stroke:#181818;stroke-width:0.5;" width="166.7422" x="195.8154" y="50"/><text fill="#000000" font-family="sans-serif" font-size="12" lengthAdjust="spacing" textLength="146.7422" x="205.8154" y="71.1387">Inicio del entrenamiento</text><polygon fill="#F1F1F1" points="199.7104,103.9688,358.6626,103.9688,370.6626,115.9688,358.6626,127.9688,199.7104,127.9688,187.7104,115.9688,199.7104,103.9688" style="stroke:#181818;stroke-width:0.5;"/><text fill="#000000" font-family="sans-serif" font-size="11" lengthAdjust="spacing" textLength="158.9521" x="199.7104" y="119.7769">¿Existe el modelo guardado?</text><text fill="#000000" font-family="sans-serif" font-size="11" lengthAdjust="spacing" textLength="8.7871" x="178.9233" y="113.3745">sí</text><text fill="#000000" font-family="sans-serif" font-size="11" lengthAdjust="spacing" textLength="13.7017" x="370.6626" y="113.3745">no</text><rect fill="#F1F1F1" height="33.9688" rx="12.5" ry="12.5" style="stroke:#181818;stroke-width:0.5;" width="197.2402" x="11" y="137.9688"/><text fill="#000000" font-family="sans-serif" font-size="12" lengthAdjust="spacing" textLength="177.2402" x="21" y="159.1074">Cargar modelo desde archivo</text><rect fill="#F1F1F1" height="33.9688" rx="12.5" ry="12.5" style="stroke:#181818;stroke-width:0.5;" width="152.832" x="33.2041" y="191.9375"/><text fill="#000000" font-family="sans-serif" font-size="12" lengthAdjust="spacing" textLength="132.832" x="43.2041" y="213.0762">Fin del entrenamiento</text><ellipse cx="109.6201" cy="256.9063" fill="none" rx="11" ry="11" style="stroke:#222222;stroke-width:1;"/><ellipse cx="109.6201" cy="256.9063" fill="#222222" rx="6" ry="6" style="stroke:#222222;stroke-width:1;"/><rect fill="#F1F1F1" height="33.9688" rx="12.5" ry="12.5" style="stroke:#181818;stroke-width:0.5;" width="233.5977" x="331.9541" y="137.9688"/><text fill="#000000" font-family="sans-serif" font-size="12" lengthAdjust="spacing" textLength="213.5977" x="341.9541" y="159.1074">Cargar datos de valoraciones (CSV)</text><rect fill="#F1F1F1" height="33.9688" rx="12.5" ry="12.5" style="stroke:#181818;stroke-width:0.5;" width="240.1895" x="328.6582" y="191.9375"/><text fill="#000000" font-family="sans-serif" font-size="12" lengthAdjust="spacing" textLength="220.1895" x="338.6582" y="213.0762">Configurar lector de datos (Surprise)</text><rect fill="#F1F1F1" height="33.9688" rx="12.5" ry="12.5" style="stroke:#181818;stroke-width:0.5;" width="227.4922" x="335.0068" y="245.9063"/><text fill="#000000" font-family="sans-serif" font-size="12" lengthAdjust="spacing" textLength="207.4922" x="345.0068" y="267.0449">Crear dataset desde el DataFrame</text><rect fill="#F1F1F1" height="33.9688" rx="12.5" ry="12.5" style="stroke:#181818;stroke-width:0.5;" width="441.0254" x="228.2402" y="299.875"/><text fill="#000000" font-family="sans-serif" font-size="12" lengthAdjust="spacing" textLength="421.0254" x="238.2402" y="321.0137">Dividir datos en conjunto de entrenamiento y prueba (train_test_split)</text><rect fill="#F1F1F1" height="33.9688" rx="12.5" ry="12.5" style="stroke:#181818;stroke-width:0.5;" width="242.3457" x="327.5801" y="353.8438"/><text fill="#000000" font-family="sans-serif" font-size="12" lengthAdjust="spacing" textLength="222.3457" x="337.5801" y="374.9824">Definir parámetros del modelo (SVD)</text><rect fill="#F1F1F1" height="33.9688" rx="12.5" ry="12.5" style="stroke:#181818;stroke-width:0.5;" width="342.6523" x="277.4268" y="407.8125"/><text fill="#000000" font-family="sans-serif" font-size="12" lengthAdjust="spacing" textLength="322.6523" x="287.4268" y="428.9512">Entrenar el modelo con el conjunto de entrenamiento</text><rect fill="#F1F1F1" height="33.9688" rx="12.5" ry="12.5" style="stroke:#181818;stroke-width:0.5;" width="279.9863" x="308.7598" y="461.7813"/><text fill="#000000" font-family="sans-serif" font-size="12" lengthAdjust="spacing" textLength="259.9863" x="318.7598" y="482.9199">Guardar el modelo entrenadoen un archivo</text><rect fill="#F1F1F1" height="33.9688" rx="12.5" ry="12.5" style="stroke:#181818;stroke-width:0.5;" width="152.832" x="202.7705" y="515.75"/><text fill="#000000" font-family="sans-serif" font-size="12" lengthAdjust="spacing" textLength="132.832" x="212.7705" y="536.8887">Fin del entrenamiento</text><ellipse cx="279.1865" cy="580.7188" fill="none" rx="11" ry="11" style="stroke:#222222;stroke-width:1;"/><ellipse cx="279.1865" cy="580.7188" fill="#222222" rx="6" ry="6" style="stroke:#222222;stroke-width:1;"/><line style="stroke:#181818;stroke-width:1;" x1="279.1865" x2="279.1865" y1="30" y2="50"/><polygon fill="#181818" points="275.1865,40,279.1865,50,283.1865,40,279.1865,44" style="stroke:#181818;stroke-width:1;"/><line style="stroke:#181818;stroke-width:1;" x1="109.6201" x2="109.6201" y1="171.9375" y2="191.9375"/><polygon fill="#181818" points="105.6201,181.9375,109.6201,191.9375,113.6201,181.9375,109.6201,185.9375" style="stroke:#181818;stroke-width:1;"/><line style="stroke:#181818;stroke-width:1;" x1="109.6201" x2="109.6201" y1="225.9063" y2="245.9063"/><polygon fill="#181818" points="105.6201,235.9063,109.6201,245.9063,113.6201,235.9063,109.6201,239.9063" style="stroke:#181818;stroke-width:1;"/><line style="stroke:#181818;stroke-width:1;" x1="448.7529" x2="448.7529" y1="171.9375" y2="191.9375"/><polygon fill="#181818" points="444.7529,181.9375,448.7529,191.9375,452.7529,181.9375,448.7529,185.9375" style="stroke:#181818;stroke-width:1;"/><line style="stroke:#181818;stroke-width:1;" x1="448.7529" x2="448.7529" y1="225.9063" y2="245.9063"/><polygon fill="#181818" points="444.7529,235.9063,448.7529,245.9063,452.7529,235.9063,448.7529,239.9063" style="stroke:#181818;stroke-width:1;"/><line style="stroke:#181818;stroke-width:1;" x1="448.7529" x2="448.7529" y1="279.875" y2="299.875"/><polygon fill="#181818" points="444.7529,289.875,448.7529,299.875,452.7529,289.875,448.7529,293.875" style="stroke:#181818;stroke-width:1;"/><line style="stroke:#181818;stroke-width:1;" x1="448.7529" x2="448.7529" y1="333.8438" y2="353.8438"/><polygon fill="#181818" points="444.7529,343.8438,448.7529,353.8438,452.7529,343.8438,448.7529,347.8438" style="stroke:#181818;stroke-width:1;"/><line style="stroke:#181818;stroke-width:1;" x1="448.7529" x2="448.7529" y1="387.8125" y2="407.8125"/><polygon fill="#181818" points="444.7529,397.8125,448.7529,407.8125,452.7529,397.8125,448.7529,401.8125" style="stroke:#181818;stroke-width:1;"/><line style="stroke:#181818;stroke-width:1;" x1="448.7529" x2="448.7529" y1="441.7813" y2="461.7813"/><polygon fill="#181818" points="444.7529,451.7813,448.7529,461.7813,452.7529,451.7813,448.7529,455.7813" style="stroke:#181818;stroke-width:1;"/><line style="stroke:#181818;stroke-width:1;" x1="187.7104" x2="109.6201" y1="115.9688" y2="115.9688"/><line style="stroke:#181818;stroke-width:1;" x1="109.6201" x2="109.6201" y1="115.9688" y2="137.9688"/><polygon fill="#181818" points="105.6201,127.9688,109.6201,137.9688,113.6201,127.9688,109.6201,131.9688" style="stroke:#181818;stroke-width:1;"/><line style="stroke:#181818;stroke-width:1;" x1="370.6626" x2="448.7529" y1="115.9688" y2="115.9688"/><line style="stroke:#181818;stroke-width:1;" x1="448.7529" x2="448.7529" y1="115.9688" y2="137.9688"/><polygon fill="#181818" points="444.7529,127.9688,448.7529,137.9688,452.7529,127.9688,448.7529,131.9688" style="stroke:#181818;stroke-width:1;"/><line style="stroke:#181818;stroke-width:1;" x1="448.7529" x2="448.7529" y1="495.75" y2="500.75"/><line style="stroke:#181818;stroke-width:1;" x1="448.7529" x2="279.1865" y1="500.75" y2="500.75"/><line style="stroke:#181818;stroke-width:1;" x1="279.1865" x2="279.1865" y1="500.75" y2="515.75"/><polygon fill="#181818" points="275.1865,505.75,279.1865,515.75,283.1865,505.75,279.1865,509.75" style="stroke:#181818;stroke-width:1;"/><line style="stroke:#181818;stroke-width:1;" x1="279.1865" x2="279.1865" y1="83.9688" y2="103.9688"/><polygon fill="#181818" points="275.1865,93.9688,279.1865,103.9688,283.1865,93.9688,279.1865,97.9688" style="stroke:#181818;stroke-width:1;"/><line style="stroke:#181818;stroke-width:1;" x1="279.1865" x2="279.1865" y1="549.7188" y2="569.7188"/><polygon fill="#181818" points="275.1865,559.7188,279.1865,569.7188,283.1865,559.7188,279.1865,563.7188" style="stroke:#181818;stroke-width:1;"/><!--SRC=[TL51Ri903Bpd5JukNw277W9KFIDnHMxM0LU9D_8wY3wd3-WRAfMFrO64WbJsjBiUpumzsL2jAEQlmXKdYDG0YIa9jkoNz5GKN4Fu-LuUEHk1rzlag0Ix7ZLYJCypi3q9X7pwcXNWPrwYxb0dOAGS2L2hFH-SxunOiVodDTIofQwW9XC4IVU44IrbxuC3DadH3Gjb2ELwCnjvooGrxtfrS4EL9HtGbxQmxhLJpdJ5AbquCPEDBjtImZzMYYsDi0KVEF8axeDMITvxjpjGt_c73-YqfpU4O8eiMwDiszmrRAuvib7DucmTwkcp9TFpGDUbXlLcCVbRNhZrPkSkFRmUEfXKNixPt7QEi9XyW5x-qY29N7l-3m8PmlW5]--></g></svg>