<svg xmlns="http://www.w3.org/2000/svg" xmlns:xlink="http://www.w3.org/1999/xlink" contentStyleType="text/css" height="500px" preserveAspectRatio="none" style="width:936px;height:500px;background:#FFFFFF;" version="1.1" viewBox="0 0 936 500" width="936px" zoomAndPan="magnify"><defs/><g><!--cluster modules--><g id="cluster_modules"><path d="M247.58,6 L315.4013,6 A3.75,3.75 0 0 1 317.9013,8.5 L324.9013,28.2969 L691.89,28.2969 A2.5,2.5 0 0 1 694.39,30.7969 L694.39,262.5 A2.5,2.5 0 0 1 691.89,265 L247.58,265 A2.5,2.5 0 0 1 245.08,262.5 L245.08,8.5 A2.5,2.5 0 0 1 247.58,6 " fill="none" style="stroke:#000000;stroke-width:1.5;"/><line style="stroke:#000000;stroke-width:1.5;" x1="245.08" x2="324.9013" y1="28.2969" y2="28.2969"/><text fill="#000000" font-family="sans-serif" font-size="14" font-weight="bold" lengthAdjust="spacing" textLength="66.8213" x="249.08" y="20.9951">modules</text></g><!--cluster data--><g id="cluster_data"><path d="M724.89,234 L761.4984,234 A3.75,3.75 0 0 1 763.9984,236.5 L770.9984,256.2969 L927.4,256.2969 A2.5,2.5 0 0 1 929.9,258.7969 L929.9,490.5 A2.5,2.5 0 0 1 927.4,493 L724.89,493 A2.5,2.5 0 0 1 722.39,490.5 L722.39,236.5 A2.5,2.5 0 0 1 724.89,234 " fill="none" style="stroke:#000000;stroke-width:1.5;"/><line style="stroke:#000000;stroke-width:1.5;" x1="722.39" x2="770.9984" y1="256.2969" y2="256.2969"/><text fill="#000000" font-family="sans-serif" font-size="14" font-weight="bold" lengthAdjust="spacing" textLength="35.6084" x="726.39" y="248.9951">data</text></g><!--entity HybridRecommender--><g id="elem_HybridRecommender"><rect fill="#F1F1F1" height="46.2969" rx="2.5" ry="2.5" style="stroke:#181818;stroke-width:0.5;" width="188.8525" x="261.08" y="121.85"/><rect fill="#F1F1F1" height="10" style="stroke:#181818;stroke-width:0.5;" width="15" x="429.9325" y="126.85"/><rect fill="#F1F1F1" height="2" style="stroke:#181818;stroke-width:0.5;" width="4" x="427.9325" y="128.85"/><rect fill="#F1F1F1" height="2" style="stroke:#181818;stroke-width:0.5;" width="4" x="427.9325" y="132.85"/><text fill="#000000" font-family="sans-serif" font-size="14" lengthAdjust="spacing" textLength="148.8525" x="276.08" y="154.8451">HybridRecommender</text></g><!--entity CollaborativeFilter--><g id="elem_CollaborativeFilter"><rect fill="#F1F1F1" height="46.2969" rx="2.5" ry="2.5" style="stroke:#181818;stroke-width:0.5;" width="168.4541" x="509.93" y="202.85"/><rect fill="#F1F1F1" height="10" style="stroke:#181818;stroke-width:0.5;" width="15" x="658.3841" y="207.85"/><rect fill="#F1F1F1" height="2" style="stroke:#181818;stroke-width:0.5;" width="4" x="656.3841" y="209.85"/><rect fill="#F1F1F1" height="2" style="stroke:#181818;stroke-width:0.5;" width="4" x="656.3841" y="213.85"/><text fill="#000000" font-family="sans-serif" font-size="14" lengthAdjust="spacing" textLength="128.4541" x="524.93" y="235.8451">CollaborativeFilter</text></g><!--entity ContentFilter--><g id="elem_ContentFilter"><rect fill="#F1F1F1" height="46.2969" rx="2.5" ry="2.5" style="stroke:#181818;stroke-width:0.5;" width="131.3691" x="528.48" y="121.85"/><rect fill="#F1F1F1" height="10" style="stroke:#181818;stroke-width:0.5;" width="15" x="639.8491" y="126.85"/><rect fill="#F1F1F1" height="2" style="stroke:#181818;stroke-width:0.5;" width="4" x="637.8491" y="128.85"/><rect fill="#F1F1F1" height="2" style="stroke:#181818;stroke-width:0.5;" width="4" x="637.8491" y="132.85"/><text fill="#000000" font-family="sans-serif" font-size="14" lengthAdjust="spacing" textLength="91.3691" x="543.48" y="154.8451">ContentFilter</text></g><!--entity GeoUtils--><g id="elem_GeoUtils"><rect fill="#F1F1F1" height="46.2969" rx="2.5" ry="2.5" style="stroke:#181818;stroke-width:0.5;" width="98.8369" x="544.74" y="40.85"/><rect fill="#F1F1F1" height="10" style="stroke:#181818;stroke-width:0.5;" width="15" x="623.5769" y="45.85"/><rect fill="#F1F1F1" height="2" style="stroke:#181818;stroke-width:0.5;" width="4" x="621.5769" y="47.85"/><rect fill="#F1F1F1" height="2" style="stroke:#181818;stroke-width:0.5;" width="4" x="621.5769" y="51.85"/><text fill="#000000" font-family="sans-serif" font-size="14" lengthAdjust="spacing" textLength="58.8369" x="559.74" y="73.8451">GeoUtils</text></g><!--entity DataLoader--><g id="elem_DataLoader"><rect fill="#F1F1F1" height="46.2969" rx="2.5" ry="2.5" style="stroke:#181818;stroke-width:0.5;" width="121.6279" x="294.69" y="202.85"/><rect fill="#F1F1F1" height="10" style="stroke:#181818;stroke-width:0.5;" width="15" x="396.3179" y="207.85"/><rect fill="#F1F1F1" height="2" style="stroke:#181818;stroke-width:0.5;" width="4" x="394.3179" y="209.85"/><rect fill="#F1F1F1" height="2" style="stroke:#181818;stroke-width:0.5;" width="4" x="394.3179" y="213.85"/><text fill="#000000" font-family="sans-serif" font-size="14" lengthAdjust="spacing" textLength="81.6279" x="309.69" y="235.8451">DataLoader</text></g><!--entity coches.csv--><g id="elem_coches.csv"><rect fill="#F1F1F1" height="46.2969" rx="2.5" ry="2.5" style="stroke:#181818;stroke-width:0.5;" width="116.4668" x="767.91" y="268.85"/><rect fill="#F1F1F1" height="10" style="stroke:#181818;stroke-width:0.5;" width="15" x="864.3768" y="273.85"/><rect fill="#F1F1F1" height="2" style="stroke:#181818;stroke-width:0.5;" width="4" x="862.3768" y="275.85"/><rect fill="#F1F1F1" height="2" style="stroke:#181818;stroke-width:0.5;" width="4" x="862.3768" y="279.85"/><text fill="#000000" font-family="sans-serif" font-size="14" lengthAdjust="spacing" textLength="76.4668" x="782.91" y="301.8451">coches.csv</text></g><!--entity car_ratings.csv--><g id="elem_car_ratings.csv"><rect fill="#F1F1F1" height="46.2969" rx="2.5" ry="2.5" style="stroke:#181818;stroke-width:0.5;" width="145.5264" x="753.38" y="349.85"/><rect fill="#F1F1F1" height="10" style="stroke:#181818;stroke-width:0.5;" width="15" x="878.9064" y="354.85"/><rect fill="#F1F1F1" height="2" style="stroke:#181818;stroke-width:0.5;" width="4" x="876.9064" y="356.85"/><rect fill="#F1F1F1" height="2" style="stroke:#181818;stroke-width:0.5;" width="4" x="876.9064" y="360.85"/><text fill="#000000" font-family="sans-serif" font-size="14" lengthAdjust="spacing" textLength="105.5264" x="768.38" y="382.8451">car_ratings.csv</text></g><!--entity distance_cache.csv--><g id="elem_distance_cache.csv"><rect fill="#F1F1F1" height="46.2969" rx="2.5" ry="2.5" style="stroke:#181818;stroke-width:0.5;" width="175.5088" x="738.39" y="430.85"/><rect fill="#F1F1F1" height="10" style="stroke:#181818;stroke-width:0.5;" width="15" x="893.8988" y="435.85"/><rect fill="#F1F1F1" height="2" style="stroke:#181818;stroke-width:0.5;" width="4" x="891.8988" y="437.85"/><rect fill="#F1F1F1" height="2" style="stroke:#181818;stroke-width:0.5;" width="4" x="891.8988" y="441.85"/><text fill="#000000" font-family="sans-serif" font-size="14" lengthAdjust="spacing" textLength="135.5088" x="753.39" y="463.8451">distance_cache.csv</text></g><!--entity CarRecommenderApp--><g id="elem_CarRecommenderApp"><rect fill="#F1F1F1" height="46.2969" rx="2.5" ry="2.5" style="stroke:#181818;stroke-width:0.5;" width="194.082" x="7" y="162.85"/><rect fill="#F1F1F1" height="10" style="stroke:#181818;stroke-width:0.5;" width="15" x="181.082" y="167.85"/><rect fill="#F1F1F1" height="2" style="stroke:#181818;stroke-width:0.5;" width="4" x="179.082" y="169.85"/><rect fill="#F1F1F1" height="2" style="stroke:#181818;stroke-width:0.5;" width="4" x="179.082" y="173.85"/><text fill="#000000" font-family="sans-serif" font-size="14" lengthAdjust="spacing" textLength="154.082" x="22" y="195.8451">CarRecommenderApp</text></g><!--link CarRecommenderApp to HybridRecommender--><g id="link_CarRecommenderApp_HybridRecommender"><path d="M201.49,170.15 C220.96,166.95 235.4797,164.5645 254.8597,161.3745 " fill="none" id="CarRecommenderApp-to-HybridRecommender" style="stroke:#181818;stroke-width:1;"/><polygon fill="#181818" points="260.78,160.4,251.2498,157.9149,255.8464,161.2121,252.5492,165.8086,260.78,160.4" style="stroke:#181818;stroke-width:1;"/></g><!--link CarRecommenderApp to DataLoader--><g id="link_CarRecommenderApp_DataLoader"><path d="M201.49,201.47 C232.75,206.48 260.5956,210.9406 288.4256,215.4006 " fill="none" id="CarRecommenderApp-to-DataLoader" style="stroke:#181818;stroke-width:1;"/><polygon fill="#181818" points="294.35,216.35,286.0964,210.9762,289.413,215.5588,284.8304,218.8754,294.35,216.35" style="stroke:#181818;stroke-width:1;"/></g><!--link HybridRecommender to CollaborativeFilter--><g id="link_HybridRecommender_CollaborativeFilter"><path d="M425.59,168.65 C456.7,179.29 487.6531,189.8877 518.7231,200.5177 " fill="none" id="HybridRecommender-to-CollaborativeFilter" style="stroke:#181818;stroke-width:1;"/><polygon fill="#181818" points="524.4,202.46,517.1794,195.762,519.6692,200.8415,514.5898,203.3312,524.4,202.46" style="stroke:#181818;stroke-width:1;"/></g><!--link HybridRecommender to GeoUtils--><g id="link_HybridRecommender_GeoUtils"><path d="M425.59,121.35 C463.66,108.33 504.3235,94.4135 538.6135,82.6735 " fill="none" id="HybridRecommender-to-GeoUtils" style="stroke:#181818;stroke-width:1;"/><polygon fill="#181818" points="544.29,80.73,534.4796,79.8609,539.5596,82.3496,537.0709,87.4296,544.29,80.73" style="stroke:#181818;stroke-width:1;"/></g><!--link HybridRecommender to ContentFilter--><g id="link_HybridRecommender_ContentFilter"><path d="M450.38,145 C476.45,145 498.17,145 522.19,145 " fill="none" id="HybridRecommender-to-ContentFilter" style="stroke:#181818;stroke-width:1;"/><polygon fill="#181818" points="528.19,145,519.19,141,523.19,145,519.19,149,528.19,145" style="stroke:#181818;stroke-width:1;"/></g><!--link DataLoader to coches.csv--><g id="link_DataLoader_coches.csv"><path d="M416.8,244.83 C444.85,252.89 478.82,261.65 509.93,267 C599.07,282.31 698.0339,288.0528 761.5239,290.3528 " fill="none" id="DataLoader-to-coches.csv" style="stroke:#181818;stroke-width:1;"/><polygon fill="#181818" points="767.52,290.57,758.6707,286.2468,762.5233,290.389,758.3811,294.2416,767.52,290.57" style="stroke:#181818;stroke-width:1;"/></g><!--link DataLoader to car_ratings.csv--><g id="link_DataLoader_car_ratings.csv"><path d="M402.24,249.62 C432.27,264.43 472.73,283.1 509.93,296 C591.5,324.29 682.4898,345.107 747.1098,358.217 " fill="none" id="DataLoader-to-car_ratings.csv" style="stroke:#181818;stroke-width:1;"/><polygon fill="#181818" points="752.99,359.41,744.965,353.7004,748.0898,358.4159,743.3744,361.5407,752.99,359.41" style="stroke:#181818;stroke-width:1;"/></g><!--link DataLoader to distance_cache.csv--><g id="link_DataLoader_distance_cache.csv"><path d="M378.22,249.47 C406.13,278.35 457.3,327.1 509.93,356 C582.14,395.65 666.8054,420.3133 732.2854,435.5133 " fill="none" id="DataLoader-to-distance_cache.csv" style="stroke:#181818;stroke-width:1;"/><polygon fill="#181818" points="738.13,436.87,730.2676,430.9385,733.2595,435.7394,728.4586,438.7313,738.13,436.87" style="stroke:#181818;stroke-width:1;"/></g><!--SRC=[TP112i8m44NtEKLmNuyWYA8kN0ckIf5fCjPWcYd9A8XuTzDQ96AQHKX-tioVV8jdbapIc-R2KXkFYWqvKQx07r1HswBJw9TTLmdHWRf2WtBMahvP33Fv54B6DMpbxb5xevEgAhOXQw4c3spkk36MHzKnElxUjqX7DZR4uneOzWH3zIknr57l_GOdHUg2OQx2lHe5yAVUmpMZMceJ69p2auB8ViJOB_ClMHIBYU4ds7J6JE47olzyYauIc6xu4zfFL97eaJINtFDVIlzC9hSt]--></g></svg>