<svg xmlns="http://www.w3.org/2000/svg" xmlns:xlink="http://www.w3.org/1999/xlink" contentStyleType="text/css" height="522px" preserveAspectRatio="none" style="width:845px;height:522px;background:#FFFFFF;" version="1.1" viewBox="0 0 845 522" width="845px" zoomAndPan="magnify"><defs/><g><!--class CollaborativeFilter--><g id="elem_CollaborativeFilter"><rect codeLine="1" fill="#F1F1F1" height="129.4844" id="CollaborativeFilter" rx="2.5" ry="2.5" style="stroke:#181818;stroke-width:0.5;" width="175.2354" x="7" y="385.97"/><ellipse cx="28.6516" cy="401.97" fill="#ADD1B2" rx="11" ry="11" style="stroke:#181818;stroke-width:1;"/><path d="M31.6203,407.6106 Q31.0422,407.9075 30.4016,408.0481 Q29.7609,408.2044 29.0578,408.2044 Q26.5578,408.2044 25.2297,406.5637 Q23.9172,404.9075 23.9172,401.7825 Q23.9172,398.6575 25.2297,397.0012 Q26.5578,395.345 29.0578,395.345 Q29.7609,395.345 30.4016,395.5012 Q31.0578,395.6575 31.6203,395.9544 L31.6203,398.6731 Q30.9953,398.095 30.4016,397.8294 Q29.8078,397.5481 29.1828,397.5481 Q27.8391,397.5481 27.1516,398.6262 Q26.4641,399.6887 26.4641,401.7825 Q26.4641,403.8762 27.1516,404.9544 Q27.8391,406.0169 29.1828,406.0169 Q29.8078,406.0169 30.4016,405.7512 Q30.9953,405.47 31.6203,404.8919 L31.6203,407.6106 Z " fill="#000000"/><text fill="#000000" font-family="sans-serif" font-size="14" lengthAdjust="spacing" textLength="128.4541" x="44.1297" y="406.8167">CollaborativeFilter</text><line style="stroke:#181818;stroke-width:0.5;" x1="8" x2="181.2354" y1="417.97" y2="417.97"/><rect fill="none" height="6" style="stroke:#C82930;stroke-width:1;" width="6" x="15" y="428.6184"/><text fill="#000000" font-family="sans-serif" font-size="14" lengthAdjust="spacing" textLength="110.127" x="27" y="434.9651">model_path: str</text><rect fill="none" height="6" style="stroke:#C82930;stroke-width:1;" width="6" x="15" y="444.9153"/><text fill="#000000" font-family="sans-serif" font-size="14" lengthAdjust="spacing" textLength="78.4971" x="27" y="451.262">model: any</text><rect fill="none" height="6" style="stroke:#C82930;stroke-width:1;" width="6" x="15" y="461.2122"/><text fill="#000000" font-family="sans-serif" font-size="14" lengthAdjust="spacing" textLength="83.1865" x="27" y="467.5589">testset: any</text><line style="stroke:#181818;stroke-width:0.5;" x1="8" x2="181.2354" y1="474.8606" y2="474.8606"/><ellipse cx="18" cy="488.5091" fill="#84BE84" rx="3" ry="3" style="stroke:#038048;stroke-width:1;"/><text fill="#000000" font-family="sans-serif" font-size="14" lengthAdjust="spacing" textLength="139.7949" x="27" y="491.8557">train_model(): None</text><ellipse cx="18" cy="504.8059" fill="#84BE84" rx="3" ry="3" style="stroke:#038048;stroke-width:1;"/><text fill="#000000" font-family="sans-serif" font-size="14" lengthAdjust="spacing" textLength="149.2354" x="27" y="508.1526">predict_rating(): float</text></g><!--class ContentFilter--><g id="elem_ContentFilter"><rect codeLine="9" fill="#F1F1F1" height="64.2969" id="ContentFilter" rx="2.5" ry="2.5" style="stroke:#181818;stroke-width:0.5;" width="341.8887" x="217.67" y="418.56"/><ellipse cx="338.6798" cy="434.56" fill="#ADD1B2" rx="11" ry="11" style="stroke:#181818;stroke-width:1;"/><path d="M341.6485,440.2006 Q341.0704,440.4975 340.4298,440.6381 Q339.7891,440.7944 339.086,440.7944 Q336.586,440.7944 335.2579,439.1538 Q333.9454,437.4975 333.9454,434.3725 Q333.9454,431.2475 335.2579,429.5913 Q336.586,427.935 339.086,427.935 Q339.7891,427.935 340.4298,428.0913 Q341.086,428.2475 341.6485,428.5444 L341.6485,431.2631 Q341.0235,430.685 340.4298,430.4194 Q339.836,430.1381 339.211,430.1381 Q337.8673,430.1381 337.1798,431.2163 Q336.4923,432.2788 336.4923,434.3725 Q336.4923,436.4663 337.1798,437.5444 Q337.8673,438.6069 339.211,438.6069 Q339.836,438.6069 340.4298,438.3413 Q341.0235,438.06 341.6485,437.4819 L341.6485,440.2006 Z " fill="#000000"/><text fill="#000000" font-family="sans-serif" font-size="14" lengthAdjust="spacing" textLength="91.3691" x="359.1798" y="439.4067">ContentFilter</text><line style="stroke:#181818;stroke-width:0.5;" x1="218.67" x2="558.5587" y1="450.56" y2="450.56"/><line style="stroke:#181818;stroke-width:0.5;" x1="218.67" x2="558.5587" y1="458.56" y2="458.56"/><ellipse cx="228.67" cy="472.2084" fill="#84BE84" rx="3" ry="3" style="stroke:#038048;stroke-width:1;"/><text fill="#000000" font-family="sans-serif" font-size="14" lengthAdjust="spacing" textLength="315.8887" x="237.67" y="475.5551">calculate_content_similarity(): pd.DataFrame</text></g><!--class GeoUtils--><g id="elem_GeoUtils"><rect codeLine="13" fill="#F1F1F1" height="129.4844" id="GeoUtils" rx="2.5" ry="2.5" style="stroke:#181818;stroke-width:0.5;" width="244.5244" x="594.36" y="385.97"/><ellipse cx="682.9538" cy="401.97" fill="#ADD1B2" rx="11" ry="11" style="stroke:#181818;stroke-width:1;"/><path d="M685.9225,407.6106 Q685.3444,407.9075 684.7038,408.0481 Q684.0631,408.2044 683.36,408.2044 Q680.86,408.2044 679.5319,406.5637 Q678.2194,404.9075 678.2194,401.7825 Q678.2194,398.6575 679.5319,397.0012 Q680.86,395.345 683.36,395.345 Q684.0631,395.345 684.7038,395.5012 Q685.36,395.6575 685.9225,395.9544 L685.9225,398.6731 Q685.2975,398.095 684.7038,397.8294 Q684.11,397.5481 683.485,397.5481 Q682.1413,397.5481 681.4538,398.6262 Q680.7663,399.6887 680.7663,401.7825 Q680.7663,403.8762 681.4538,404.9544 Q682.1413,406.0169 683.485,406.0169 Q684.11,406.0169 684.7038,405.7512 Q685.2975,405.47 685.9225,404.8919 L685.9225,407.6106 Z " fill="#000000"/><text fill="#000000" font-family="sans-serif" font-size="14" lengthAdjust="spacing" textLength="58.8369" x="703.4538" y="406.8167">GeoUtils</text><line style="stroke:#181818;stroke-width:0.5;" x1="595.36" x2="837.8844" y1="417.97" y2="417.97"/><rect fill="none" height="6" style="stroke:#C82930;stroke-width:1;" width="6" x="602.36" y="428.6184"/><text fill="#000000" font-family="sans-serif" font-size="14" lengthAdjust="spacing" textLength="160.8086" x="614.36" y="434.9651">geolocator: Nominatim</text><rect fill="none" height="6" style="stroke:#C82930;stroke-width:1;" width="6" x="602.36" y="444.9153"/><text fill="#000000" font-family="sans-serif" font-size="14" lengthAdjust="spacing" textLength="97.4873" x="614.36" y="451.262">cache_file: str</text><rect fill="none" height="6" style="stroke:#C82930;stroke-width:1;" width="6" x="602.36" y="461.2122"/><text fill="#000000" font-family="sans-serif" font-size="14" lengthAdjust="spacing" textLength="142.9121" x="614.36" y="467.5589">distance_cache: dict</text><line style="stroke:#181818;stroke-width:0.5;" x1="595.36" x2="837.8844" y1="474.8606" y2="474.8606"/><ellipse cx="605.36" cy="488.5091" fill="#84BE84" rx="3" ry="3" style="stroke:#038048;stroke-width:1;"/><text fill="#000000" font-family="sans-serif" font-size="14" lengthAdjust="spacing" textLength="181.1729" x="614.36" y="491.8557">calculate_distance(): float</text><ellipse cx="605.36" cy="504.8059" fill="#84BE84" rx="3" ry="3" style="stroke:#038048;stroke-width:1;"/><text fill="#000000" font-family="sans-serif" font-size="14" lengthAdjust="spacing" textLength="218.5244" x="614.36" y="508.1526">apply_penalty(): pd.DataFrame</text></g><!--class HybridRecommender--><g id="elem_HybridRecommender"><rect codeLine="21" fill="#F1F1F1" height="96.8906" id="HybridRecommender" rx="2.5" ry="2.5" style="stroke:#181818;stroke-width:0.5;" width="304.8994" x="236.17" y="229.08"/><ellipse cx="309.9434" cy="245.08" fill="#ADD1B2" rx="11" ry="11" style="stroke:#181818;stroke-width:1;"/><path d="M312.9122,250.7206 Q312.3341,251.0175 311.6934,251.1581 Q311.0528,251.3144 310.3497,251.3144 Q307.8497,251.3144 306.5216,249.6737 Q305.2091,248.0175 305.2091,244.8925 Q305.2091,241.7675 306.5216,240.1112 Q307.8497,238.455 310.3497,238.455 Q311.0528,238.455 311.6934,238.6112 Q312.3497,238.7675 312.9122,239.0644 L312.9122,241.7831 Q312.2872,241.205 311.6934,240.9394 Q311.0997,240.6581 310.4747,240.6581 Q309.1309,240.6581 308.4434,241.7362 Q307.7559,242.7987 307.7559,244.8925 Q307.7559,246.9862 308.4434,248.0644 Q309.1309,249.1269 310.4747,249.1269 Q311.0997,249.1269 311.6934,248.8612 Q312.2872,248.58 312.9122,248.0019 L312.9122,250.7206 Z " fill="#000000"/><text fill="#000000" font-family="sans-serif" font-size="14" lengthAdjust="spacing" textLength="148.8525" x="330.4434" y="249.9267">HybridRecommender</text><line style="stroke:#181818;stroke-width:0.5;" x1="237.17" x2="540.0694" y1="261.08" y2="261.08"/><rect fill="none" height="6" style="stroke:#C82930;stroke-width:1;" width="6" x="244.17" y="271.7284"/><text fill="#000000" font-family="sans-serif" font-size="14" lengthAdjust="spacing" textLength="278.8994" x="256.17" y="278.0751">collaborative_model: CollaborativeFilter</text><rect fill="none" height="6" style="stroke:#C82930;stroke-width:1;" width="6" x="244.17" y="288.0253"/><text fill="#000000" font-family="sans-serif" font-size="14" lengthAdjust="spacing" textLength="170.085" x="256.17" y="294.372">geo_calculator: GeoUtils</text><line style="stroke:#181818;stroke-width:0.5;" x1="237.17" x2="540.0694" y1="301.6738" y2="301.6738"/><ellipse cx="247.17" cy="315.3222" fill="#84BE84" rx="3" ry="3" style="stroke:#038048;stroke-width:1;"/><text fill="#000000" font-family="sans-serif" font-size="14" lengthAdjust="spacing" textLength="204.6611" x="256.17" y="318.6689">recommend(): pd.DataFrame</text></g><!--class CarRecommenderApp--><g id="elem_CarRecommenderApp"><rect codeLine="27" fill="#F1F1F1" height="162.0781" id="CarRecommenderApp" rx="2.5" ry="2.5" style="stroke:#181818;stroke-width:0.5;" width="186.082" x="295.58" y="7"/><ellipse cx="310.58" cy="23" fill="#ADD1B2" rx="11" ry="11" style="stroke:#181818;stroke-width:1;"/><path d="M313.5488,28.6406 Q312.9706,28.9375 312.33,29.0781 Q311.6894,29.2344 310.9863,29.2344 Q308.4863,29.2344 307.1581,27.5938 Q305.8456,25.9375 305.8456,22.8125 Q305.8456,19.6875 307.1581,18.0313 Q308.4863,16.375 310.9863,16.375 Q311.6894,16.375 312.33,16.5313 Q312.9863,16.6875 313.5488,16.9844 L313.5488,19.7031 Q312.9238,19.125 312.33,18.8594 Q311.7363,18.5781 311.1113,18.5781 Q309.7675,18.5781 309.08,19.6563 Q308.3925,20.7188 308.3925,22.8125 Q308.3925,24.9063 309.08,25.9844 Q309.7675,27.0469 311.1113,27.0469 Q311.7363,27.0469 312.33,26.7813 Q312.9238,26.5 313.5488,25.9219 L313.5488,28.6406 Z " fill="#000000"/><text fill="#000000" font-family="sans-serif" font-size="14" lengthAdjust="spacing" textLength="154.082" x="324.58" y="27.8467">CarRecommenderApp</text><line style="stroke:#181818;stroke-width:0.5;" x1="296.58" x2="480.662" y1="39" y2="39"/><rect fill="none" height="6" style="stroke:#C82930;stroke-width:1;" width="6" x="303.58" y="49.6484"/><text fill="#000000" font-family="sans-serif" font-size="14" lengthAdjust="spacing" textLength="95.8604" x="315.58" y="55.9951">cars_path: str</text><rect fill="none" height="6" style="stroke:#C82930;stroke-width:1;" width="6" x="303.58" y="65.9453"/><text fill="#000000" font-family="sans-serif" font-size="14" lengthAdjust="spacing" textLength="115.3018" x="315.58" y="72.292">ratings_path: str</text><rect fill="none" height="6" style="stroke:#C82930;stroke-width:1;" width="6" x="303.58" y="82.2422"/><text fill="#000000" font-family="sans-serif" font-size="14" lengthAdjust="spacing" textLength="135.4883" x="315.58" y="88.5889">distance_cache: str</text><rect fill="none" height="6" style="stroke:#C82930;stroke-width:1;" width="6" x="303.58" y="98.5391"/><text fill="#000000" font-family="sans-serif" font-size="14" lengthAdjust="spacing" textLength="78.0186" x="315.58" y="104.8857">user_id: str</text><line style="stroke:#181818;stroke-width:0.5;" x1="296.58" x2="480.662" y1="112.1875" y2="112.1875"/><ellipse cx="306.58" cy="125.8359" fill="#84BE84" rx="3" ry="3" style="stroke:#038048;stroke-width:1;"/><text fill="#000000" font-family="sans-serif" font-size="14" lengthAdjust="spacing" textLength="156.8779" x="315.58" y="129.1826">check_csv_files(): bool</text><ellipse cx="306.58" cy="142.1328" fill="#84BE84" rx="3" ry="3" style="stroke:#038048;stroke-width:1;"/><text fill="#000000" font-family="sans-serif" font-size="14" lengthAdjust="spacing" textLength="159.3799" x="315.58" y="145.4795">get_user_input(): tuple</text><ellipse cx="306.58" cy="158.4297" fill="#84BE84" rx="3" ry="3" style="stroke:#038048;stroke-width:1;"/><text fill="#000000" font-family="sans-serif" font-size="14" lengthAdjust="spacing" textLength="80.1172" x="315.58" y="161.7764">run(): None</text></g><!--class DataLoader--><g id="elem_DataLoader"><rect codeLine="37" fill="#F1F1F1" height="64.2969" id="DataLoader" rx="2.5" ry="2.5" style="stroke:#181818;stroke-width:0.5;" width="154.748" x="516.24" y="55.89"/><ellipse cx="549.7441" cy="71.89" fill="#ADD1B2" rx="11" ry="11" style="stroke:#181818;stroke-width:1;"/><path d="M552.7128,77.5306 Q552.1347,77.8275 551.4941,77.9681 Q550.8534,78.1244 550.1503,78.1244 Q547.6503,78.1244 546.3222,76.4837 Q545.0097,74.8275 545.0097,71.7025 Q545.0097,68.5775 546.3222,66.9212 Q547.6503,65.265 550.1503,65.265 Q550.8534,65.265 551.4941,65.4212 Q552.1503,65.5775 552.7128,65.8744 L552.7128,68.5931 Q552.0878,68.015 551.4941,67.7494 Q550.9003,67.4681 550.2753,67.4681 Q548.9316,67.4681 548.2441,68.5462 Q547.5566,69.6087 547.5566,71.7025 Q547.5566,73.7962 548.2441,74.8744 Q548.9316,75.9369 550.2753,75.9369 Q550.9003,75.9369 551.4941,75.6712 Q552.0878,75.39 552.7128,74.8119 L552.7128,77.5306 Z " fill="#000000"/><text fill="#000000" font-family="sans-serif" font-size="14" lengthAdjust="spacing" textLength="81.6279" x="567.8561" y="76.7367">DataLoader</text><line style="stroke:#181818;stroke-width:0.5;" x1="517.24" x2="669.988" y1="87.89" y2="87.89"/><line style="stroke:#181818;stroke-width:0.5;" x1="517.24" x2="669.988" y1="95.89" y2="95.89"/><ellipse cx="527.24" cy="109.5384" fill="#84BE84" rx="3" ry="3" style="stroke:#038048;stroke-width:1;"/><text fill="#000000" font-family="sans-serif" font-size="14" lengthAdjust="spacing" textLength="128.748" x="536.24" y="112.8851">load_data() : tuple</text></g><!--link CarRecommenderApp to HybridRecommender--><g id="link_CarRecommenderApp_HybridRecommender"><path codeLine="41" d="M388.62,169.36 C388.62,189.54 388.62,204.56 388.62,222.59 " fill="none" id="CarRecommenderApp-to-HybridRecommender" style="stroke:#181818;stroke-width:1;"/><polygon fill="#181818" points="388.62,228.59,392.62,219.59,388.62,223.59,384.62,219.59,388.62,228.59" style="stroke:#181818;stroke-width:1;"/></g><!--link HybridRecommender to CollaborativeFilter--><g id="link_HybridRecommender_CollaborativeFilter"><path codeLine="42" d="M304.16,326.26 C271.7,344.75 234.34,366.19 200.62,385.97 C194.78,389.39 199.0954,386.7988 193.0554,390.3888 " fill="none" id="HybridRecommender-to-CollaborativeFilter" style="stroke:#181818;stroke-width:1;"/><polygon fill="#181818" points="182.74,396.52,189.9415,396.8929,193.0554,390.3888,185.854,390.0159,182.74,396.52" style="stroke:#181818;stroke-width:1;"/></g><!--link HybridRecommender to GeoUtils--><g id="link_HybridRecommender_GeoUtils"><path codeLine="43" d="M480.42,326.43 C515.58,344.78 545.6213,360.4686 583.2213,380.0886 " fill="none" id="HybridRecommender-to-GeoUtils" style="stroke:#181818;stroke-width:1;"/><polygon fill="#181818" points="593.86,385.64,590.3911,379.3181,583.2213,380.0886,586.6902,386.4106,593.86,385.64" style="stroke:#181818;stroke-width:1;"/></g><!--link HybridRecommender to ContentFilter--><g id="link_HybridRecommender_ContentFilter"><path codeLine="44" d="M388.62,326.21 C388.62,355.59 388.62,380.44 388.62,406.21 " fill="none" id="HybridRecommender-to-ContentFilter" style="stroke:#181818;stroke-width:1;"/><polygon fill="#181818" points="388.62,418.21,392.62,412.21,388.62,406.21,384.62,412.21,388.62,418.21" style="stroke:#181818;stroke-width:1;"/></g><!--link CarRecommenderApp to DataLoader--><g id="link_CarRecommenderApp_DataLoader"><path codeLine="45" d="M481.91,88.04 C493.25,88.04 498.6,88.04 509.95,88.04 " fill="none" id="CarRecommenderApp-to-DataLoader" style="stroke:#181818;stroke-width:1;"/><polygon fill="#181818" points="515.95,88.04,506.95,84.04,510.95,88.04,506.95,92.04,515.95,88.04" style="stroke:#181818;stroke-width:1;"/></g><!--SRC=[VPB1JiCm38RlVOeS6LDvW1uceQ710N50uXnvYRT5k4cKk9CgnBlJhEqQQ4UF_btd-_rR4SGejeu8zYu0cpFk3346yLM8xYj5xJIIzC2dIaGEURKIODkXm1Wv8a-bjU00nifBvzsg4c_Eug3uWDeebkb1UqpYWHnmyLqKQW2oZ9P_eQo50b8D0QDKlIwZgGr1CDoc8Lu_F073Ba2DqwndT1ziA5uT7T6HKy0k9AZQs8wY7ZG5weJoO0Xpjzf41gkwTvDSYGG_OngR9Zjz1tXFhVHeWVx3V6dtmUXtLAwkqUei0PMd8uVDBqGssPCZLR8u-XzmmlZ2RPGjX8pZqVi91KAStKAVuhp-TskJqaGCqkYfrEtnXEfJgdY-B3yckBrpDAX7PDd_P7t3IUJ6qtXEeR7N0xkQIBvU7UZiVhfGjDHT_MubnWbT_znkMMxcUHJpXChoVZ68vSvh4BS6PJU_1BN9FFq0]--></g></svg>