<svg xmlns="http://www.w3.org/2000/svg" xmlns:xlink="http://www.w3.org/1999/xlink" contentStyleType="text/css" height="299px" preserveAspectRatio="none" style="width:1537px;height:299px;background:#FFFFFF;" version="1.1" viewBox="0 0 1537 299" width="1537px" zoomAndPan="magnify"><defs/><g><!--cluster Cliente--><g id="cluster_Cliente"><polygon fill="none" points="16,165,26,155,177.51,155,177.51,247,167.51,257,16,257,16,165" style="stroke:#181818;stroke-width:1.0;"/><line style="stroke:#181818;stroke-width:1.0;" x1="167.51" x2="177.51" y1="165" y2="155"/><line style="stroke:#181818;stroke-width:1.0;" x1="16" x2="167.51" y1="165" y2="165"/><line style="stroke:#181818;stroke-width:1.0;" x1="167.51" x2="167.51" y1="165" y2="257"/><text fill="#000000" font-family="sans-serif" font-size="14" font-weight="bold" lengthAdjust="spacing" textLength="55.5215" x="64.9943" y="180.9951">Cliente</text></g><!--cluster Servidor--><g id="cluster_Servidor"><polygon fill="none" points="423.51,16,433.51,6,1520.63,6,1520.63,272,1510.63,282,423.51,282,423.51,16" style="stroke:#181818;stroke-width:1.0;"/><line style="stroke:#181818;stroke-width:1.0;" x1="1510.63" x2="1520.63" y1="16" y2="6"/><line style="stroke:#181818;stroke-width:1.0;" x1="423.51" x2="1510.63" y1="16" y2="16"/><line style="stroke:#181818;stroke-width:1.0;" x1="1510.63" x2="1510.63" y1="16" y2="282"/><text fill="#000000" font-family="sans-serif" font-size="14" font-weight="bold" lengthAdjust="spacing" textLength="66.9512" x="934.5944" y="31.9951">Servidor</text></g><!--entity Interfaz Web--><g id="elem_Interfaz Web"><rect fill="#F1F1F1" height="46.2969" rx="2.5" ry="2.5" style="stroke:#181818;stroke-width:0.5;" width="129.5098" x="32" y="194.85"/><rect fill="#F1F1F1" height="10" style="stroke:#181818;stroke-width:0.5;" width="15" x="141.5098" y="199.85"/><rect fill="#F1F1F1" height="2" style="stroke:#181818;stroke-width:0.5;" width="4" x="139.5098" y="201.85"/><rect fill="#F1F1F1" height="2" style="stroke:#181818;stroke-width:0.5;" width="4" x="139.5098" y="205.85"/><text fill="#000000" font-family="sans-serif" font-size="14" lengthAdjust="spacing" textLength="89.5098" x="47" y="227.8451">Interfaz Web</text></g><!--entity Aplicaci?n Flask--><g id="elem_Aplicaci&#243;n Flask"><rect fill="#F1F1F1" height="46.2969" rx="2.5" ry="2.5" style="stroke:#181818;stroke-width:0.5;" width="151.918" x="439.51" y="145.85"/><rect fill="#F1F1F1" height="10" style="stroke:#181818;stroke-width:0.5;" width="15" x="571.428" y="150.85"/><rect fill="#F1F1F1" height="2" style="stroke:#181818;stroke-width:0.5;" width="4" x="569.428" y="152.85"/><rect fill="#F1F1F1" height="2" style="stroke:#181818;stroke-width:0.5;" width="4" x="569.428" y="156.85"/><text fill="#000000" font-family="sans-serif" font-size="14" lengthAdjust="spacing" textLength="111.918" x="454.51" y="178.8451">Aplicaci&#243;n Flask</text></g><!--entity M?dulo de Recomendaci?n--><g id="elem_M&#243;dulo de Recomendaci&#243;n"><rect fill="#F1F1F1" height="46.2969" rx="2.5" ry="2.5" style="stroke:#181818;stroke-width:0.5;" width="229.4785" x="869.69" y="132.85"/><rect fill="#F1F1F1" height="10" style="stroke:#181818;stroke-width:0.5;" width="15" x="1079.1685" y="137.85"/><rect fill="#F1F1F1" height="2" style="stroke:#181818;stroke-width:0.5;" width="4" x="1077.1685" y="139.85"/><rect fill="#F1F1F1" height="2" style="stroke:#181818;stroke-width:0.5;" width="4" x="1077.1685" y="143.85"/><text fill="#000000" font-family="sans-serif" font-size="14" lengthAdjust="spacing" textLength="189.4785" x="884.69" y="165.8451">M&#243;dulo de Recomendaci&#243;n</text></g><!--entity Base de Datos--><g id="elem_Base de Datos"><rect fill="#F1F1F1" height="46.2969" rx="2.5" ry="2.5" style="stroke:#181818;stroke-width:0.5;" width="141.1992" x="1363.43" y="121.85"/><rect fill="#F1F1F1" height="10" style="stroke:#181818;stroke-width:0.5;" width="15" x="1484.6292" y="126.85"/><rect fill="#F1F1F1" height="2" style="stroke:#181818;stroke-width:0.5;" width="4" x="1482.6292" y="128.85"/><rect fill="#F1F1F1" height="2" style="stroke:#181818;stroke-width:0.5;" width="4" x="1482.6292" y="132.85"/><text fill="#000000" font-family="sans-serif" font-size="14" lengthAdjust="spacing" textLength="101.1992" x="1378.43" y="154.8451">Base de Datos</text></g><!--link Interfaz Web to Aplicaci?n Flask--><g id="link_Interfaz Web_Aplicaci&#243;n Flask"><path d="M161.84,208.3 C172.41,206.8 183.26,205.31 193.51,204 C277.47,193.29 368.0807,183.6461 433.1807,177.0361 " fill="none" id="Interfaz Web-to-Aplicaci&#243;n Flask" style="stroke:#181818;stroke-width:1.0;"/><polygon fill="#181818" points="439.15,176.43,429.792,173.3596,434.1756,176.9351,430.6001,181.3187,439.15,176.43" style="stroke:#181818;stroke-width:1.0;"/><text fill="#000000" font-family="sans-serif" font-size="13" lengthAdjust="spacing" textLength="108.1768" x="246.51" y="176.0669">Solicitudes HTTP</text></g><!--link Aplicaci?n Flask to Interfaz Web--><g id="link_Aplicaci&#243;n Flask_Interfaz Web"><path d="M482.63,192.59 C462.29,206.16 434.7,221.89 407.51,229 C324.73,250.63 231.2127,242.1101 167.7327,231.8201 " fill="none" id="Aplicaci&#243;n Flask-to-Interfaz Web" style="stroke:#181818;stroke-width:1.0;"/><polygon fill="#181818" points="161.81,230.86,170.054,236.2485,166.7456,231.66,171.3341,228.3516,161.81,230.86" style="stroke:#181818;stroke-width:1.0;"/><text fill="#000000" font-family="sans-serif" font-size="13" lengthAdjust="spacing" textLength="212.5767" x="194.51" y="225.0669">Resultados mostrados al usuario</text></g><!--link Aplicaci?n Flask to Base de Datos--><g id="link_Aplicaci&#243;n Flask_Base de Datos"><path d="M591.65,186.67 C601.63,188.66 611.75,190.51 621.43,192 C833.81,224.75 889.81,224.75 1104.43,214 C1206.59,208.88 1234.75,217.93 1333.43,191 C1352.72,185.74 1367.5529,179.6917 1384.7029,171.2817 " fill="none" id="Aplicaci&#243;n Flask-to-Base de Datos" style="stroke:#181818;stroke-width:1.0;"/><polygon fill="#181818" points="1390.09,168.64,1380.2481,169.0112,1385.6007,170.8414,1383.7705,176.194,1390.09,168.64" style="stroke:#181818;stroke-width:1.0;"/><text fill="#000000" font-family="sans-serif" font-size="13" lengthAdjust="spacing" textLength="114.5625" x="927.43" y="210.0669">Consultar usuario</text></g><!--link Base de Datos to Aplicaci?n Flask--><g id="link_Base de Datos_Aplicaci&#243;n Flask"><path d="M1363.11,127.88 C1353.2,125.94 1343.09,124.23 1333.43,123 C1019.49,83.18 930.88,62.78 621.43,129 C603.88,132.75 590.9901,136.8003 574.5001,143.2303 " fill="none" id="Base de Datos-to-Aplicaci&#243;n Flask" style="stroke:#181818;stroke-width:1.0;"/><polygon fill="#181818" points="568.91,145.41,578.7482,145.8671,573.5684,143.5935,575.8419,138.4137,568.91,145.41" style="stroke:#181818;stroke-width:1.0;"/><text fill="#000000" font-family="sans-serif" font-size="13" lengthAdjust="spacing" textLength="238.9067" x="865.43" y="83.0669">Resultado de la consulta (&#233;xito/fallo)</text></g><!--link Aplicaci?n Flask to M?dulo de Recomendaci?n--><g id="link_Aplicaci&#243;n Flask_M&#243;dulo de Recomendaci&#243;n"><path d="M591.8,177.05 C601.75,177.85 611.83,178.54 621.43,179 C715.99,183.49 740.04,186.24 834.43,179 C845.78,178.13 851.6257,177.6292 863.3857,176.1692 " fill="none" id="Aplicaci&#243;n Flask-to-M&#243;dulo de Recomendaci&#243;n" style="stroke:#181818;stroke-width:1.0;"/><polygon fill="#181818" points="869.34,175.43,859.9158,172.5693,864.3781,176.046,860.9014,180.5084,869.34,175.43" style="stroke:#181818;stroke-width:1.0;"/><text fill="#000000" font-family="sans-serif" font-size="13" lengthAdjust="spacing" textLength="141.4512" x="657.43" y="175.0669">Llamadas a funciones</text></g><!--link M?dulo de Recomendaci?n to Aplicaci?n Flask--><g id="link_M&#243;dulo de Recomendaci&#243;n_Aplicaci&#243;n Flask"><path d="M869.21,153.74 C797.92,153.05 704.26,153.44 621.43,158 C611.82,158.53 607.7156,158.7595 597.7656,159.6595 " fill="none" id="M&#243;dulo de Recomendaci&#243;n-to-Aplicaci&#243;n Flask" style="stroke:#181818;stroke-width:1.0;"/><polygon fill="#181818" points="591.79,160.2,601.1137,163.373,596.7697,159.7496,600.3931,155.4055,591.79,160.2" style="stroke:#181818;stroke-width:1.0;"/><text fill="#000000" font-family="sans-serif" font-size="13" lengthAdjust="spacing" textLength="211.4976" x="622.43" y="150.0669">Resultados de recomendaciones</text></g><!--link M?dulo de Recomendaci?n to Base de Datos--><g id="link_M&#243;dulo de Recomendaci&#243;n_Base de Datos"><path d="M1099.61,174.45 C1167.81,182.52 1255.95,187.78 1333.43,176 C1344.44,174.33 1350.1296,173.2783 1361.1996,170.1983 " fill="none" id="M&#243;dulo de Recomendaci&#243;n-to-Base de Datos" style="stroke:#181818;stroke-width:1.0;"/><polygon fill="#181818" points="1366.98,168.59,1357.2372,167.1488,1362.163,169.9302,1359.3815,174.8561,1366.98,168.59" style="stroke:#181818;stroke-width:1.0;"/><text fill="#000000" font-family="sans-serif" font-size="13" lengthAdjust="spacing" textLength="197.5898" x="1135.43" y="172.0669">Consultas de usuario y coches</text></g><!--link Base de Datos to M?dulo de Recomendaci?n--><g id="link_Base de Datos_M&#243;dulo de Recomendaci&#243;n"><path d="M1363.13,146.72 C1292.65,148.45 1188.6782,151.0021 1105.5282,153.0521 " fill="none" id="Base de Datos-to-M&#243;dulo de Recomendaci&#243;n" style="stroke:#181818;stroke-width:1.0;"/><polygon fill="#181818" points="1099.53,153.2,1108.6259,156.977,1104.5285,153.0768,1108.4287,148.9794,1099.53,153.2" style="stroke:#181818;stroke-width:1.0;"/><text fill="#000000" font-family="sans-serif" font-size="13" lengthAdjust="spacing" textLength="152.9341" x="1157.93" y="144.0669">Respuestas a consultas</text></g><!--SRC=[XP9DJiCm48NtFiMeArXKx5aWGH422IJKLcA1iXZiIMlXU2h_87x4WLZt2BaOZfE2WfAGbUDvR-PzanWg0mG6fpVR04exaa6p5POLmMnXDDb0C_WGa9x7c_JYIdo71tegnAVeP2joBrgn-z6TxuoMA7Mzjt1bq3yNq1RkwhsAXY6vbYIv8gjQMT7MBz1JKxp4m3vFwC-4-VniiFqfh3XTwX0LURXUh-_5a2pR-qEITS7MHnFGGVGHdMRnLpC-TadPgZAJGP1TBpYglrvru9CIZU7ZyJJZAqdTRmrMgD03GXcjJ5ycqOafppIXRsuxI7XBOUMM_33jPAv4lOlaGqvsGFR_1vjUOKxdVdqDxVZY-Zz6hqt5FhXyGdF0_GO0]--></g></svg>