<svg xmlns="http://www.w3.org/2000/svg" xmlns:xlink="http://www.w3.org/1999/xlink" contentStyleType="text/css" height="507px" preserveAspectRatio="none" style="width:1410px;height:507px;background:#FFFFFF;" version="1.1" viewBox="0 0 1410 507" width="1410px" zoomAndPan="magnify"><defs/><g><!--class DataLoader--><g id="elem_DataLoader"><rect codeLine="1" fill="#F1F1F1" height="80.5938" id="DataLoader" rx="2.5" ry="2.5" style="stroke:#181818;stroke-width:0.5;" width="432.9092" x="7" y="23.29"/><ellipse cx="178.3906" cy="39.29" fill="#ADD1B2" rx="11" ry="11" style="stroke:#181818;stroke-width:1.0;"/><path d="M181.3594,44.9306 Q180.7813,45.2275 180.1406,45.3681 Q179.5,45.5244 178.7969,45.5244 Q176.2969,45.5244 174.9688,43.8838 Q173.6563,42.2275 173.6563,39.1025 Q173.6563,35.9775 174.9688,34.3213 Q176.2969,32.665 178.7969,32.665 Q179.5,32.665 180.1406,32.8213 Q180.7969,32.9775 181.3594,33.2744 L181.3594,35.9931 Q180.7344,35.415 180.1406,35.1494 Q179.5469,34.8681 178.9219,34.8681 Q177.5781,34.8681 176.8906,35.9463 Q176.2031,37.0088 176.2031,39.1025 Q176.2031,41.1963 176.8906,42.2744 Q177.5781,43.3369 178.9219,43.3369 Q179.5469,43.3369 180.1406,43.0713 Q180.7344,42.79 181.3594,42.2119 L181.3594,44.9306 Z " fill="#000000"/><text fill="#000000" font-family="sans-serif" font-size="14" lengthAdjust="spacing" textLength="81.6279" x="198.8906" y="44.1367">DataLoader</text><line style="stroke:#181818;stroke-width:0.5;" x1="8" x2="438.9092" y1="55.29" y2="55.29"/><line style="stroke:#181818;stroke-width:0.5;" x1="8" x2="438.9092" y1="63.29" y2="63.29"/><ellipse cx="18" cy="76.9384" fill="#84BE84" rx="3" ry="3" style="stroke:#038048;stroke-width:1.0;"/><text fill="#000000" font-family="sans-serif" font-size="14" lengthAdjust="spacing" textLength="368.2246" x="27" y="80.2851">load_data(coches_path: str, ratings_path: str) : tuple</text><ellipse cx="18" cy="93.2353" fill="#84BE84" rx="3" ry="3" style="stroke:#038048;stroke-width:1.0;"/><text fill="#000000" font-family="sans-serif" font-size="14" lengthAdjust="spacing" textLength="406.9092" x="27" y="96.582">assign_model_ids(df_cars: pd.DataFrame) : pd.DataFrame</text></g><!--class GeoDistanceCalculator--><g id="elem_GeoDistanceCalculator"><rect codeLine="6" fill="#F1F1F1" height="113.1875" id="GeoDistanceCalculator" rx="2.5" ry="2.5" style="stroke:#181818;stroke-width:0.5;" width="594.0322" x="474.44" y="7"/><ellipse cx="687.0377" cy="23" fill="#ADD1B2" rx="11" ry="11" style="stroke:#181818;stroke-width:1.0;"/><path d="M690.0064,28.6406 Q689.4283,28.9375 688.7877,29.0781 Q688.147,29.2344 687.4439,29.2344 Q684.9439,29.2344 683.6158,27.5938 Q682.3033,25.9375 682.3033,22.8125 Q682.3033,19.6875 683.6158,18.0313 Q684.9439,16.375 687.4439,16.375 Q688.147,16.375 688.7877,16.5313 Q689.4439,16.6875 690.0064,16.9844 L690.0064,19.7031 Q689.3814,19.125 688.7877,18.8594 Q688.1939,18.5781 687.5689,18.5781 Q686.2252,18.5781 685.5377,19.6563 Q684.8502,20.7188 684.8502,22.8125 Q684.8502,24.9063 685.5377,25.9844 Q686.2252,27.0469 687.5689,27.0469 Q688.1939,27.0469 688.7877,26.7813 Q689.3814,26.5 690.0064,25.9219 L690.0064,28.6406 Z " fill="#000000"/><text fill="#000000" font-family="sans-serif" font-size="14" lengthAdjust="spacing" textLength="160.3369" x="707.5377" y="27.8467">GeoDistanceCalculator</text><line style="stroke:#181818;stroke-width:0.5;" x1="475.44" x2="1067.4722" y1="39" y2="39"/><rect fill="none" height="6" style="stroke:#C82930;stroke-width:1.0;" width="6" x="482.44" y="49.6484"/><text fill="#000000" font-family="sans-serif" font-size="14" lengthAdjust="spacing" textLength="76.5898" x="494.44" y="55.9951">cache: dict</text><rect fill="none" height="6" style="stroke:#C82930;stroke-width:1.0;" width="6" x="482.44" y="65.9453"/><text fill="#000000" font-family="sans-serif" font-size="14" lengthAdjust="spacing" textLength="142.9121" x="494.44" y="72.292">distance_cache: dict</text><line style="stroke:#181818;stroke-width:0.5;" x1="475.44" x2="1067.4722" y1="79.5938" y2="79.5938"/><ellipse cx="485.44" cy="93.2422" fill="#84BE84" rx="3" ry="3" style="stroke:#038048;stroke-width:1.0;"/><text fill="#000000" font-family="sans-serif" font-size="14" lengthAdjust="spacing" textLength="365.1416" x="494.44" y="96.5889">obtener_coordenadas(ubicacion, pais=None) : tuple</text><ellipse cx="485.44" cy="109.5391" fill="#84BE84" rx="3" ry="3" style="stroke:#038048;stroke-width:1.0;"/><text fill="#000000" font-family="sans-serif" font-size="14" lengthAdjust="spacing" textLength="568.0322" x="494.44" y="112.8857">calcular_distancia(origen, destino, pais_origen=None, pais_destino=None) : float</text></g><!--class RecommendationModel--><g id="elem_RecommendationModel"><rect codeLine="13" fill="#F1F1F1" height="129.4844" id="RecommendationModel" rx="2.5" ry="2.5" style="stroke:#181818;stroke-width:0.5;" width="701.3564" x="139.78" y="197.19"/><ellipse cx="403.3669" cy="213.19" fill="#ADD1B2" rx="11" ry="11" style="stroke:#181818;stroke-width:1.0;"/><path d="M406.3357,218.8306 Q405.7575,219.1275 405.1169,219.2681 Q404.4763,219.4244 403.7732,219.4244 Q401.2732,219.4244 399.945,217.7838 Q398.6325,216.1275 398.6325,213.0025 Q398.6325,209.8775 399.945,208.2213 Q401.2732,206.565 403.7732,206.565 Q404.4763,206.565 405.1169,206.7213 Q405.7732,206.8775 406.3357,207.1744 L406.3357,209.8931 Q405.7107,209.315 405.1169,209.0494 Q404.5232,208.7681 403.8982,208.7681 Q402.5544,208.7681 401.8669,209.8463 Q401.1794,210.9088 401.1794,213.0025 Q401.1794,215.0963 401.8669,216.1744 Q402.5544,217.2369 403.8982,217.2369 Q404.5232,217.2369 405.1169,216.9713 Q405.7107,216.69 406.3357,216.1119 L406.3357,218.8306 Z " fill="#000000"/><text fill="#000000" font-family="sans-serif" font-size="14" lengthAdjust="spacing" textLength="165.6826" x="423.8669" y="218.0367">RecommendationModel</text><line style="stroke:#181818;stroke-width:0.5;" x1="140.78" x2="840.1364" y1="229.19" y2="229.19"/><rect fill="none" height="6" style="stroke:#C82930;stroke-width:1.0;" width="6" x="147.78" y="239.8384"/><text fill="#000000" font-family="sans-serif" font-size="14" lengthAdjust="spacing" textLength="179.04" x="159.78" y="246.1851">df_ratings: pd.DataFrame</text><line style="stroke:#181818;stroke-width:0.5;" x1="140.78" x2="840.1364" y1="253.4869" y2="253.4869"/><ellipse cx="150.78" cy="267.1353" fill="#84BE84" rx="3" ry="3" style="stroke:#038048;stroke-width:1.0;"/><text fill="#000000" font-family="sans-serif" font-size="14" lengthAdjust="spacing" textLength="393.9209" x="159.78" y="270.482">train(test_size: float = 0.2, random_state: int = 0) : void</text><ellipse cx="150.78" cy="283.4322" fill="#84BE84" rx="3" ry="3" style="stroke:#038048;stroke-width:1.0;"/><text fill="#000000" font-family="sans-serif" font-size="14" lengthAdjust="spacing" textLength="121.2148" x="159.78" y="286.7789">evaluate() : tuple</text><ellipse cx="150.78" cy="299.7291" fill="#84BE84" rx="3" ry="3" style="stroke:#038048;stroke-width:1.0;"/><text fill="#000000" font-family="sans-serif" font-size="14" lengthAdjust="spacing" textLength="331.3926" x="159.78" y="303.0757">predict_rating(user_id: str, model_id: int) : float</text><ellipse cx="150.78" cy="316.0259" fill="#84BE84" rx="3" ry="3" style="stroke:#038048;stroke-width:1.0;"/><text fill="#000000" font-family="sans-serif" font-size="14" lengthAdjust="spacing" textLength="675.3564" x="159.78" y="319.3726">predict_rating_new_user(model_id: int, car_features: dict, preferences: dict, weights: dict) : float</text></g><!--class Recommender--><g id="elem_Recommender"><rect codeLine="21" fill="#F1F1F1" height="64.2969" id="Recommender" rx="2.5" ry="2.5" style="stroke:#181818;stroke-width:0.5;" width="410.2207" x="285.34" y="419.97"/><ellipse cx="434.8898" cy="435.97" fill="#ADD1B2" rx="11" ry="11" style="stroke:#181818;stroke-width:1.0;"/><path d="M437.8586,441.6106 Q437.2804,441.9075 436.6398,442.0481 Q435.9992,442.2044 435.2961,442.2044 Q432.7961,442.2044 431.4679,440.5637 Q430.1554,438.9075 430.1554,435.7825 Q430.1554,432.6575 431.4679,431.0012 Q432.7961,429.345 435.2961,429.345 Q435.9992,429.345 436.6398,429.5012 Q437.2961,429.6575 437.8586,429.9544 L437.8586,432.6731 Q437.2336,432.095 436.6398,431.8294 Q436.0461,431.5481 435.4211,431.5481 Q434.0773,431.5481 433.3898,432.6262 Q432.7023,433.6887 432.7023,435.7825 Q432.7023,437.8762 433.3898,438.9544 Q434.0773,440.0169 435.4211,440.0169 Q436.0461,440.0169 436.6398,439.7512 Q437.2336,439.47 437.8586,438.8919 L437.8586,441.6106 Z " fill="#000000"/><text fill="#000000" font-family="sans-serif" font-size="14" lengthAdjust="spacing" textLength="102.6211" x="455.3898" y="440.8167">Recommender</text><line style="stroke:#181818;stroke-width:0.5;" x1="286.34" x2="694.5607" y1="451.97" y2="451.97"/><line style="stroke:#181818;stroke-width:0.5;" x1="286.34" x2="694.5607" y1="459.97" y2="459.97"/><ellipse cx="296.34" cy="473.6184" fill="#84BE84" rx="3" ry="3" style="stroke:#038048;stroke-width:1.0;"/><text fill="#000000" font-family="sans-serif" font-size="14" lengthAdjust="spacing" textLength="384.2207" x="305.34" y="476.9651">recommend(user_preferences: dict, weights: dict) : list</text></g><!--class User--><g id="elem_User"><rect codeLine="25" fill="#F1F1F1" height="96.8906" id="User" rx="2.5" ry="2.5" style="stroke:#181818;stroke-width:0.5;" width="233.9219" x="1143.49" y="213.48"/><ellipse cx="1240.2459" cy="229.48" fill="#ADD1B2" rx="11" ry="11" style="stroke:#181818;stroke-width:1.0;"/><path d="M1243.2146,235.1206 Q1242.6365,235.4175 1241.9959,235.5581 Q1241.3552,235.7144 1240.6521,235.7144 Q1238.1521,235.7144 1236.824,234.0738 Q1235.5115,232.4175 1235.5115,229.2925 Q1235.5115,226.1675 1236.824,224.5113 Q1238.1521,222.855 1240.6521,222.855 Q1241.3552,222.855 1241.9959,223.0113 Q1242.6521,223.1675 1243.2146,223.4644 L1243.2146,226.1831 Q1242.5896,225.605 1241.9959,225.3394 Q1241.4021,225.0581 1240.7771,225.0581 Q1239.4334,225.0581 1238.7459,226.1363 Q1238.0584,227.1988 1238.0584,229.2925 Q1238.0584,231.3863 1238.7459,232.4644 Q1239.4334,233.5269 1240.7771,233.5269 Q1241.4021,233.5269 1241.9959,233.2613 Q1242.5896,232.98 1243.2146,232.4019 L1243.2146,235.1206 Z " fill="#000000"/><text fill="#000000" font-family="sans-serif" font-size="14" lengthAdjust="spacing" textLength="31.9102" x="1260.7459" y="234.3267">User</text><line style="stroke:#181818;stroke-width:0.5;" x1="1144.49" x2="1376.4119" y1="245.48" y2="245.48"/><rect fill="none" height="6" style="stroke:#C82930;stroke-width:1.0;" width="6" x="1151.49" y="256.1284"/><text fill="#000000" font-family="sans-serif" font-size="14" lengthAdjust="spacing" textLength="97.9453" x="1163.49" y="262.4751">username: str</text><rect fill="none" height="6" style="stroke:#C82930;stroke-width:1.0;" width="6" x="1151.49" y="272.4253"/><text fill="#000000" font-family="sans-serif" font-size="14" lengthAdjust="spacing" textLength="94.418" x="1163.49" y="278.772">password: str</text><rect fill="none" height="6" style="stroke:#C82930;stroke-width:1.0;" width="6" x="1151.49" y="288.7222"/><text fill="#000000" font-family="sans-serif" font-size="14" lengthAdjust="spacing" textLength="207.9219" x="1163.49" y="295.0689">preferences: UserPreferences</text><line style="stroke:#181818;stroke-width:0.5;" x1="1144.49" x2="1376.4119" y1="302.3706" y2="302.3706"/></g><!--class UserPreferences--><g id="elem_UserPreferences"><rect codeLine="31" fill="#F1F1F1" height="96.8906" id="UserPreferences" rx="2.5" ry="2.5" style="stroke:#181818;stroke-width:0.5;" width="252.6865" x="1134.11" y="403.67"/><ellipse cx="1198.6481" cy="419.67" fill="#ADD1B2" rx="11" ry="11" style="stroke:#181818;stroke-width:1.0;"/><path d="M1201.6168,425.3106 Q1201.0387,425.6075 1200.3981,425.7481 Q1199.7575,425.9044 1199.0543,425.9044 Q1196.5543,425.9044 1195.2262,424.2638 Q1193.9137,422.6075 1193.9137,419.4825 Q1193.9137,416.3575 1195.2262,414.7013 Q1196.5543,413.045 1199.0543,413.045 Q1199.7575,413.045 1200.3981,413.2013 Q1201.0543,413.3575 1201.6168,413.6544 L1201.6168,416.3731 Q1200.9918,415.795 1200.3981,415.5294 Q1199.8043,415.2481 1199.1793,415.2481 Q1197.8356,415.2481 1197.1481,416.3263 Q1196.4606,417.3888 1196.4606,419.4825 Q1196.4606,421.5763 1197.1481,422.6544 Q1197.8356,423.7169 1199.1793,423.7169 Q1199.8043,423.7169 1200.3981,423.4513 Q1200.9918,423.17 1201.6168,422.5919 L1201.6168,425.3106 Z " fill="#000000"/><text fill="#000000" font-family="sans-serif" font-size="14" lengthAdjust="spacing" textLength="115.1104" x="1219.1481" y="424.5167">UserPreferences</text><line style="stroke:#181818;stroke-width:0.5;" x1="1135.11" x2="1385.7965" y1="435.67" y2="435.67"/><rect fill="none" height="6" style="stroke:#C82930;stroke-width:1.0;" width="6" x="1142.11" y="446.3184"/><text fill="#000000" font-family="sans-serif" font-size="14" lengthAdjust="spacing" textLength="89.626" x="1154.11" y="452.6651">weights: dict</text><line style="stroke:#181818;stroke-width:0.5;" x1="1135.11" x2="1385.7965" y1="459.9669" y2="459.9669"/><ellipse cx="1145.11" cy="473.6153" fill="#84BE84" rx="3" ry="3" style="stroke:#038048;stroke-width:1.0;"/><text fill="#000000" font-family="sans-serif" font-size="14" lengthAdjust="spacing" textLength="226.6865" x="1154.11" y="476.962">set_weights(weights: dict) : void</text><ellipse cx="1145.11" cy="489.9122" fill="#84BE84" rx="3" ry="3" style="stroke:#038048;stroke-width:1.0;"/><text fill="#000000" font-family="sans-serif" font-size="14" lengthAdjust="spacing" textLength="134.9893" x="1154.11" y="493.2589">get_weights() : dict</text></g><!--class App--><g id="elem_App"><rect codeLine="37" fill="#F1F1F1" height="113.1875" id="App" rx="2.5" ry="2.5" style="stroke:#181818;stroke-width:0.5;" width="286.9141" x="1117" y="7"/><ellipse cx="1242.5317" cy="23" fill="#ADD1B2" rx="11" ry="11" style="stroke:#181818;stroke-width:1.0;"/><path d="M1245.5005,28.6406 Q1244.9224,28.9375 1244.2817,29.0781 Q1243.6411,29.2344 1242.938,29.2344 Q1240.438,29.2344 1239.1099,27.5938 Q1237.7974,25.9375 1237.7974,22.8125 Q1237.7974,19.6875 1239.1099,18.0313 Q1240.438,16.375 1242.938,16.375 Q1243.6411,16.375 1244.2817,16.5313 Q1244.938,16.6875 1245.5005,16.9844 L1245.5005,19.7031 Q1244.8755,19.125 1244.2817,18.8594 Q1243.688,18.5781 1243.063,18.5781 Q1241.7192,18.5781 1241.0317,19.6563 Q1240.3442,20.7188 1240.3442,22.8125 Q1240.3442,24.9063 1241.0317,25.9844 Q1241.7192,27.0469 1243.063,27.0469 Q1243.688,27.0469 1244.2817,26.7813 Q1244.8755,26.5 1245.5005,25.9219 L1245.5005,28.6406 Z " fill="#000000"/><text fill="#000000" font-family="sans-serif" font-size="14" lengthAdjust="spacing" textLength="27.3506" x="1263.0317" y="27.8467">App</text><line style="stroke:#181818;stroke-width:0.5;" x1="1118" x2="1402.9141" y1="39" y2="39"/><line style="stroke:#181818;stroke-width:0.5;" x1="1118" x2="1402.9141" y1="47" y2="47"/><ellipse cx="1128" cy="60.6484" fill="#84BE84" rx="3" ry="3" style="stroke:#038048;stroke-width:1.0;"/><text fill="#000000" font-family="sans-serif" font-size="14" lengthAdjust="spacing" textLength="180.9268" x="1137" y="63.9951">home() : render_template</text><ellipse cx="1128" cy="76.9453" fill="#84BE84" rx="3" ry="3" style="stroke:#038048;stroke-width:1.0;"/><text fill="#000000" font-family="sans-serif" font-size="14" lengthAdjust="spacing" textLength="108.4658" x="1137" y="80.292">register() : void</text><ellipse cx="1128" cy="93.2422" fill="#84BE84" rx="3" ry="3" style="stroke:#038048;stroke-width:1.0;"/><text fill="#000000" font-family="sans-serif" font-size="14" lengthAdjust="spacing" textLength="113.3467" x="1137" y="96.5889">login() : redirect</text><ellipse cx="1128" cy="109.5391" fill="#84BE84" rx="3" ry="3" style="stroke:#038048;stroke-width:1.0;"/><text fill="#000000" font-family="sans-serif" font-size="14" lengthAdjust="spacing" textLength="260.9141" x="1137" y="112.8857">recommendation() : render_template</text></g><!--link DataLoader to RecommendationModel--><g id="link_DataLoader_RecommendationModel"><path codeLine="44" d="M277.49,104.32 C313.52,130.82 356.8758,162.7061 398.2958,193.1561 " fill="none" id="DataLoader-to-RecommendationModel" style="stroke:#181818;stroke-width:1.0;"/><polygon fill="#181818" points="403.13,196.71,398.2479,188.1563,399.1015,193.7484,393.5094,194.602,403.13,196.71" style="stroke:#181818;stroke-width:1.0;"/><text fill="#000000" font-family="sans-serif" font-size="13" lengthAdjust="spacing" textLength="84.1255" x="358.45" y="163.2569">Cargar datos</text></g><!--link GeoDistanceCalculator to RecommendationModel--><g id="link_GeoDistanceCalculator_RecommendationModel"><path codeLine="45" d="M691.31,120.59 C657.32,144.34 622.4386,168.7138 587.2686,193.2838 " fill="none" id="GeoDistanceCalculator-to-RecommendationModel" style="stroke:#181818;stroke-width:1.0;"/><polygon fill="#181818" points="582.35,196.72,592.0187,194.8448,586.4488,193.8565,587.4371,188.2867,582.35,196.72" style="stroke:#181818;stroke-width:1.0;"/><text fill="#000000" font-family="sans-serif" font-size="13" lengthAdjust="spacing" textLength="147.1768" x="649.45" y="163.2569">Proporciona distancias</text></g><!--link RecommendationModel to Recommender--><g id="link_RecommendationModel_Recommender"><path codeLine="46" d="M490.45,327.16 C490.45,358.36 490.45,388.45 490.45,413.61 " fill="none" id="RecommendationModel-to-Recommender" style="stroke:#181818;stroke-width:1.0;"/><polygon fill="#181818" points="490.45,419.61,494.45,410.61,490.45,414.61,486.45,410.61,490.45,419.61" style="stroke:#181818;stroke-width:1.0;"/><text fill="#000000" font-family="sans-serif" font-size="13" lengthAdjust="spacing" textLength="167.0386" x="491.45" y="369.7369">Genera recomendaciones</text></g><!--link App to User--><g id="link_App_User"><path codeLine="47" d="M1260.45,120.59 C1260.45,149.83 1260.45,179.24 1260.45,207.17 " fill="none" id="App-to-User" style="stroke:#181818;stroke-width:1.0;"/><polygon fill="#181818" points="1260.45,213.17,1264.45,204.17,1260.45,208.17,1256.45,204.17,1260.45,213.17" style="stroke:#181818;stroke-width:1.0;"/></g><!--link User to UserPreferences--><g id="link_User_UserPreferences"><path codeLine="48" d="M1260.45,310.41 C1260.45,338.83 1260.45,368.84 1260.45,397.32 " fill="none" id="User-to-UserPreferences" style="stroke:#181818;stroke-width:1.0;"/><polygon fill="#181818" points="1260.45,403.32,1264.45,394.32,1260.45,398.32,1256.45,394.32,1260.45,403.32" style="stroke:#181818;stroke-width:1.0;"/></g><!--SRC=[ZLHDYnGn4BtthyYnPMSMyTYmWkoY5vL5y1ngavgUG7SIAkaTKFplLfB-jXNxblfuzUgzf5K78OWdYF3PWKOIFol1trt79wavN2kdhXYaXtXjH8Xq4WJHs7OLUYCQ4GVVOUbbHDDQsJkDdJGwrFeY5L1eXDVtQTH7WXvJq_fS_QegbTbyGlTaGWIhy14wDNGGtKJih83fD48R5Kj0ZwLodxbpBn4jabJEaKOB6a8zl1YkCywUX0SJ7huwYplwgimaEI8Rg1sP5hb5O-3LNUcL9PeXniYOdr4lB6DS5lk6olKzMjQL6Nn9-anhiKIZh3jLCgL8O6mT6Lq6ymD7OF4Wtjw_ItvOxNh9P2EdZCs9DFxL6Lq0y1MwWTFrRbTFcFGQPzT3OBcC7dsU3CoOope7ZTBYJQRcUjDp4coxl234WJ0KQrWfmWiIicLpw8QclSRn-2_XbWjAKwYG_X_GZlrSCB-76UoS82ohdHSl8SyrDxutwz1wHcf_NW9Rt5LY6h5XKrO86EKOhlyWktZNhifI9WFCupvuFqboTNqncB9ICcBl-UtW95ZB-xD5M_JEjNorIfSsh6hSwPllwY4iSrZzECxdzuSNl16FG2sGuA0BrV7Z_dlpCpdlABrO4FE33DLHyGQ46JNy9-7t3oBlaceJ37kLD4l5oQegtuFfj3BkDm00]--></g></svg>